<svg width="35" height="25" viewBox="0 0 35 25" fill="none" xmlns="http://www.w3.org/2000/svg">
<path opacity="0.5" fill-rule="evenodd" clip-rule="evenodd" d="M26.2558 8.35995H25.644C24.1806 8.46654 22.7725 8.96128 21.5653 9.79293V0.529419H18.1818V24.3538H21.5838V23.4848C24.54 25.5589 28.4991 25.4985 31.3904 23.3353C34.2817 21.1721 35.4474 17.3981 34.2779 13.9873C33.1085 10.5764 29.8697 8.30456 26.2558 8.35995ZM31.0389 17.2722V17.4201C31.008 17.6167 30.9647 17.8113 30.9092 18.0025C30.8457 18.2078 30.7683 18.4086 30.6774 18.6034V18.6774C30.0299 20.0205 28.7934 20.9872 27.3311 21.2937L26.8768 21.3677H26.7749C26.602 21.3772 26.4287 21.3772 26.2558 21.3677C26.0387 21.367 25.8219 21.3515 25.6069 21.3215H25.4586C25.039 21.2531 24.6305 21.1287 24.2442 20.9517H24.1515C23.7621 20.7609 23.4004 20.5183 23.0762 20.2306C22.7503 19.9346 22.4664 19.5956 22.2327 19.2229C22.117 19.033 22.0148 18.8353 21.9268 18.6312C21.3748 17.375 21.3951 15.9421 21.9824 14.702C22.6992 13.1923 24.1542 12.1653 25.8201 11.9932C25.9837 11.9848 26.1477 11.9848 26.3114 11.9932C28.8796 12.0269 30.9647 14.0737 31.0389 16.6342C31.0532 16.8466 31.0532 17.0598 31.0389 17.2722ZM7.45684 21.2256C9.66552 21.7355 11.9297 20.631 12.8923 18.5742H12.9482H16.6777C15.6746 22.7124 11.7442 25.4461 7.52587 24.9398C3.3075 24.4334 0.132233 20.8468 0.132233 16.5882C0.132233 12.3297 3.3075 8.74307 7.52587 8.23673C11.7442 7.73039 15.6746 10.4641 16.6777 14.6023H12.9482C12.044 12.519 9.81178 11.351 7.58962 11.7981C5.36746 12.2453 3.75805 14.1865 3.72605 16.4581C3.69406 18.7298 5.24816 20.7157 7.45684 21.2256Z" fill="#E3E8E8"/>
</svg>
