<svg width="30" height="25" viewBox="0 0 30 25" fill="none" xmlns="http://www.w3.org/2000/svg">
<path opacity="0.5" fill-rule="evenodd" clip-rule="evenodd" d="M1.28784 10.899L7.42403 12.9927C7.87731 13.1479 8.383 13.0976 8.79003 12.8587L22.4168 4.85668L11.1774 14.7214C10.8745 14.9872 10.7018 15.3558 10.7003 15.7406L10.6617 24.287C10.6586 25.0546 11.7988 25.2793 12.1372 24.5776L15.1382 18.3546C15.3225 17.9733 15.8228 17.8195 16.219 18.0229L24.1775 22.1019C24.6771 22.3585 25.2961 22.0416 25.3223 21.5164L26.3545 1.27169C26.3807 0.754995 25.8149 0.38714 25.2938 0.582762L1.26548 9.57854C0.614089 9.82235 0.628735 10.6743 1.28784 10.899Z" fill="#E3E8E8"/>
</svg>
