<svg width="31" height="25" viewBox="0 0 31 25" fill="none" xmlns="http://www.w3.org/2000/svg">
<path opacity="0.5" fill-rule="evenodd" clip-rule="evenodd" d="M8.98737 25C19.7718 25 25.6704 15.5847 25.6704 7.4198C25.6704 7.15238 25.6704 6.88615 25.6532 6.62114C26.8007 5.74648 27.7913 4.66349 28.5785 3.42288C27.5084 3.92255 26.3732 4.25024 25.2108 4.395C26.4348 3.62282 27.3509 2.40831 27.7886 0.9775C26.6376 1.69721 25.3785 2.20442 24.0654 2.47725C22.2479 0.440715 19.3599 -0.0577344 17.0208 1.2614C14.6818 2.58054 13.4734 5.38921 14.0732 8.11246C9.35877 7.8634 4.96635 5.51689 1.98906 1.6569C0.432819 4.4801 1.22772 8.09181 3.80437 9.90493C2.87127 9.87579 1.95852 9.61054 1.14314 9.13157C1.14314 9.15686 1.14314 9.18336 1.14314 9.20986C1.1439 12.1511 3.11134 14.6843 5.84716 15.2667C4.98394 15.5148 4.07825 15.551 3.19965 15.3727C3.96778 17.8897 6.16904 19.6139 8.67758 19.6635C6.60133 21.3831 4.0365 22.3165 1.39577 22.3137C0.929263 22.3128 0.463205 22.283 0 22.2246C2.68139 24.0379 5.80134 24.9997 8.98737 24.9952" fill="#E3E8E8"/>
</svg>
