<svg width="150" height="35" viewBox="0 0 150 35" fill="none" xmlns="http://www.w3.org/2000/svg">
<path fill-rule="evenodd" clip-rule="evenodd" d="M39.4972 1.5C32.4406 1.5 26.9972 6.9277 26.9972 13.9982C26.9972 21.0723 32.4186 26.5 39.4862 26.5C46.5538 26.5 51.9972 21.0687 51.9972 13.9982C51.9972 6.9277 46.5538 1.5 39.4972 1.5ZM39.4972 6.60928C43.3712 6.60928 46.2758 9.65603 46.2758 13.9982C46.2758 18.3331 43.3712 21.3907 39.4972 21.3907C35.6232 21.3907 32.7149 18.3295 32.7149 13.9982C32.7149 9.66688 35.6232 6.60928 39.4972 6.60928Z" fill="#222426"/>
<path fill-rule="evenodd" clip-rule="evenodd" d="M60.6167 22.7033H60.7133C62.7366 24.8008 65.5506 25.9741 68.4833 25.9433C74.9385 25.9433 79.9972 20.8577 79.9972 13.222C79.9972 5.58624 74.9459 0.500648 68.4833 0.500648C65.5511 0.468402 62.737 1.64049 60.7133 3.73693H60.6167V0.962975H54.9972V34.5H60.6167V22.7033ZM67.3505 20.7623C63.51 20.7623 60.5127 17.7095 60.5127 13.222C60.5127 8.73446 63.5212 5.68898 67.3616 5.68898C71.2021 5.68898 74.1882 8.73446 74.1882 13.222C74.1882 17.7095 71.1909 20.7623 67.3505 20.7623Z" fill="#222426"/>
<path fill-rule="evenodd" clip-rule="evenodd" d="M87.6167 22.7033H87.7096C89.7338 24.8017 92.5494 25.9752 95.4833 25.9433C101.942 25.9433 106.997 20.8577 106.997 13.222C106.997 5.58626 101.946 0.500671 95.4833 0.500671C92.5499 0.467848 89.7345 1.63995 87.7096 3.73696H87.6167V0.962998H81.9972V34.5H87.6167V22.7033ZM94.3579 20.7623C90.5175 20.7623 87.5201 17.7095 87.5201 13.222C87.5201 8.73448 90.5175 5.689 94.3579 5.689C98.1984 5.689 101.196 8.73448 101.196 13.222C101.196 17.7095 98.1984 20.7623 94.3579 20.7623Z" fill="#222426"/>
<path fill-rule="evenodd" clip-rule="evenodd" d="M132.439 19.0909L126.701 18.3193C125.782 20.4104 123.85 21.6832 121.276 21.6832C118.152 21.6832 115.395 19.6353 114.98 15.7703H132.997C132.997 6.04283 127.251 1.5 120.817 1.5C114.211 1.5 108.997 6.50072 108.997 14C108.997 21.4993 114.192 26.5 121.225 26.5C126.143 26.5 130.143 24.5891 132.439 19.0909ZM120.915 6.36372C123.81 6.36372 126.293 8.545 126.891 11.5916H114.94C115.53 8.545 118.02 6.36372 120.915 6.36372Z" fill="#222426"/>
<path d="M141.635 1.68937V4.49644H141.728C142.995 2.90353 144.829 1.5 148.164 1.5C148.785 1.51115 149.402 1.60607 149.997 1.78219V7.40004C149.211 7.2184 148.408 7.12376 147.601 7.11785C143.372 7.11785 141.639 8.94468 141.639 12.9696V26.5H135.997V1.68937H141.635Z" fill="#222426"/>
<path d="M18.7562 17.7796C17.8797 19.9142 15.8195 21.3596 13.4718 21.4871C11.124 21.6146 8.91301 20.4012 7.80037 18.3746C7.54876 17.9053 7.34621 17.4123 7.1958 16.9032H7.17369C6.61833 14.9997 6.61833 12.9822 7.17369 11.0788H7.1958C7.34682 10.571 7.54935 10.0793 7.80037 9.61094C8.91471 7.58127 11.1306 6.36754 13.4817 6.49902C15.8328 6.6305 17.8929 8.08336 18.7636 10.224C18.8766 10.4957 18.9798 10.7806 19.0732 11.0788V11.0788C19.0835 11.1059 19.0921 11.1336 19.099 11.1617H24.9972C24.8454 10.3741 24.6208 9.60153 24.3263 8.85358C22.5826 4.33107 18.5866 1.5 13.4036 1.5H12.8617C8.29434 1.5 4.64854 3.71437 2.65791 7.34608C1.53147 9.38581 0.960213 11.6747 0.999048 13.9928C0.960629 16.3174 1.53445 18.6127 2.66528 20.6575C4.65591 24.2856 8.30171 26.5 12.8691 26.5H13.411C18.5903 26.5 22.59 23.6581 24.33 19.132C24.5045 18.6898 24.6535 18.2382 24.776 17.7796H18.7562Z" fill="#222426"/>
</svg>
