<svg width="262" height="68" viewBox="0 0 262 68" fill="none" xmlns="http://www.w3.org/2000/svg">
<path fill-rule="evenodd" clip-rule="evenodd" d="M131.669 34.2717C131.669 30.7038 129.286 28.1876 126.109 28.1876C122.931 28.1876 120.548 30.7038 120.548 34.2717C120.548 37.8396 122.931 40.3557 126.109 40.3557C129.286 40.3557 131.669 37.8396 131.669 34.2717ZM115.858 34.2717C115.858 28.4504 120.321 23.9814 126.109 23.9814C131.896 23.9814 136.359 28.4504 136.359 34.2717C136.359 40.0927 131.896 44.562 126.109 44.562C120.321 44.562 115.858 40.0927 115.858 34.2717Z" fill="white"/>
<path fill-rule="evenodd" clip-rule="evenodd" d="M142.909 34.234C142.909 37.877 145.33 40.3556 148.432 40.3556C151.533 40.3556 153.954 37.877 153.954 34.234C153.954 30.591 151.533 28.1124 148.432 28.1124C145.33 28.1124 142.909 30.591 142.909 34.234ZM143.061 41.9331H142.985V51.51H138.446V24.2815H142.985V26.5349H143.061C144.347 25.2582 146.313 23.9062 149.34 23.9062C154.559 23.9062 158.644 28.0374 158.644 34.234C158.644 40.431 154.559 44.5618 149.34 44.5618C146.313 44.5618 144.347 43.2101 143.061 41.9331Z" fill="white"/>
<path fill-rule="evenodd" clip-rule="evenodd" d="M165.377 34.234C165.377 37.877 167.798 40.3556 170.899 40.3556C174.001 40.3556 176.422 37.877 176.422 34.234C176.422 30.591 174.001 28.1124 170.899 28.1124C167.798 28.1124 165.377 30.591 165.377 34.234ZM165.528 41.9331H165.453V51.51H160.914V24.2815H165.453V26.5349H165.528C166.814 25.2582 168.781 23.9062 171.807 23.9062C177.027 23.9062 181.112 28.0374 181.112 34.234C181.112 40.431 177.027 44.5618 171.807 44.5618C168.781 44.5618 166.814 43.2101 165.528 41.9331Z" fill="white"/>
<path fill-rule="evenodd" clip-rule="evenodd" d="M187.596 32.2436H197.43C196.938 29.7272 194.895 27.9248 192.513 27.9248C190.13 27.9248 188.087 29.7272 187.596 32.2436ZM197.279 37.8019L202.007 38.4403C200.115 42.9846 196.825 44.5618 192.777 44.5618C186.99 44.5618 182.716 40.431 182.716 34.234C182.716 28.0374 186.99 23.9062 192.437 23.9062C197.733 23.9062 202.461 27.6618 202.461 35.6987H187.633C187.974 38.891 190.243 40.5811 192.815 40.5811C194.933 40.5811 196.522 39.5293 197.279 37.8019Z" fill="white"/>
<path fill-rule="evenodd" clip-rule="evenodd" d="M209.175 24.2817V26.5351H209.251C210.272 25.2581 211.747 24.1315 214.433 24.1315C214.773 24.1315 215.454 24.2066 215.908 24.3567V28.8635C215.303 28.7134 214.508 28.638 213.979 28.638C210.575 28.638 209.175 30.103 209.175 33.3328V44.1864H204.636V24.2817H209.175Z" fill="white"/>
<path fill-rule="evenodd" clip-rule="evenodd" d="M108.75 37.3958C107.918 39.2896 106.28 40.4388 104.174 40.4635C102.253 40.4412 100.722 39.4865 99.8344 37.886C99.6406 37.5206 99.475 37.1166 99.3436 36.6722L99.3256 36.6746C99.1045 35.952 98.9854 35.1453 98.9854 34.2687C98.9854 33.392 99.1045 32.5854 99.3256 31.8625L99.3436 31.8652C99.475 31.4204 99.6406 31.0165 99.8344 30.6513C100.722 29.0509 102.253 28.0962 104.174 28.0735C106.286 28.0986 107.928 29.2546 108.758 31.1592C108.851 31.3823 108.935 31.6173 109.009 31.8652L109.016 31.864C109.023 31.886 109.029 31.9092 109.035 31.9313H113.825C113.698 31.262 113.516 30.6254 113.282 30.0258C111.865 26.2863 108.612 23.9409 104.394 23.9409C104.32 23.9409 104.247 23.9418 104.174 23.9429C104.1 23.9418 104.027 23.9409 103.953 23.9409C100.235 23.9409 97.2691 25.7683 95.65 28.7676C94.7809 30.3115 94.2952 32.1714 94.2952 34.2687C94.2952 36.3663 94.7812 38.2271 95.6509 39.7713C97.27 42.7697 100.236 44.5965 103.953 44.5965C104.027 44.5965 104.1 44.5953 104.174 44.5941C104.247 44.5953 104.32 44.5965 104.394 44.5965C108.611 44.5965 111.865 42.2514 113.282 38.5119C113.422 38.1529 113.543 37.7803 113.645 37.3958H108.75Z" fill="white"/>
<path fill-rule="evenodd" clip-rule="evenodd" d="M212.593 41.4825C212.593 39.9428 213.993 38.4778 215.619 38.4778C217.246 38.4778 218.645 39.9428 218.645 41.4825C218.645 43.0597 217.208 44.4868 215.619 44.4868C214.031 44.4868 212.593 43.0597 212.593 41.4825Z" fill="white"/>
<mask id="mask0_1_1002" style="mask-type:alpha" maskUnits="userSpaceOnUse" x="241" y="23" width="21" height="22">
<path fill-rule="evenodd" clip-rule="evenodd" d="M241.315 23.9814H261.816V44.562H241.315V23.9814Z" fill="white"/>
</mask>
<g mask="url(#mask0_1_1002)">
<path fill-rule="evenodd" clip-rule="evenodd" d="M257.126 34.2717C257.126 30.7038 254.743 28.1876 251.565 28.1876C248.388 28.1876 246.005 30.7038 246.005 34.2717C246.005 37.8396 248.388 40.3557 251.565 40.3557C254.743 40.3557 257.126 37.8396 257.126 34.2717ZM241.315 34.2717C241.315 28.4504 245.778 23.9814 251.565 23.9814C257.352 23.9814 261.816 28.4504 261.816 34.2717C261.816 40.0927 257.352 44.562 251.565 44.562C245.778 44.562 241.315 40.0927 241.315 34.2717Z" fill="white"/>
</g>
<path fill-rule="evenodd" clip-rule="evenodd" d="M234.059 37.3958C233.227 39.2896 231.589 40.4388 229.483 40.4635C227.563 40.4412 226.031 39.4865 225.144 37.886C224.95 37.5206 224.784 37.1166 224.653 36.6722L224.635 36.6746C224.414 35.952 224.295 35.1453 224.295 34.2687C224.295 33.392 224.414 32.5854 224.635 31.8625L224.653 31.8652C224.784 31.4204 224.95 31.0165 225.144 30.6513C226.031 29.0509 227.563 28.0962 229.483 28.0735C231.596 28.0986 233.237 29.2546 234.067 31.1592C234.161 31.3823 234.245 31.6173 234.318 31.8652L234.326 31.864C234.333 31.886 234.338 31.9092 234.345 31.9313H239.135C239.007 31.262 238.825 30.6254 238.591 30.0258C237.175 26.2863 233.921 23.9409 229.704 23.9409C229.629 23.9409 229.556 23.9418 229.483 23.9429C229.409 23.9418 229.336 23.9409 229.262 23.9409C225.545 23.9409 222.578 25.7683 220.959 28.7676C220.09 30.3115 219.604 32.1714 219.604 34.2687C219.604 36.3663 220.09 38.2271 220.96 39.7713C222.579 42.7697 225.546 44.5965 229.262 44.5965C229.336 44.5965 229.409 44.5953 229.483 44.5941C229.556 44.5953 229.629 44.5965 229.704 44.5965C233.921 44.5965 237.174 42.2514 238.591 38.5119C238.731 38.1529 238.852 37.7803 238.955 37.3958H234.059Z" fill="white"/>
<path fill-rule="evenodd" clip-rule="evenodd" d="M63.0319 54.6898L63.0111 54.7135C59.8198 58.3712 56.254 60.2455 53.8248 61.1736C47.0435 63.7647 40.1954 63.6598 33.4715 60.8621C26.617 58.0105 20.4839 52.1056 17.4652 45.4513C16.1201 42.4873 15.3988 39.3684 15.321 36.1812C15.3045 35.5203 15.2808 34.7547 15.2765 34.61L15.2748 34.4695L15.2739 34.4056L15.2736 34.3866L15.2727 34.3187C15.2719 34.2575 15.271 34.1963 15.271 34.1348L15.2707 34.1108C15.271 33.9439 15.2733 33.7779 15.2771 33.6124C15.3808 29.0512 17.1557 24.6726 20.2744 21.2828C21.6741 19.7614 23.3142 18.5756 25.1483 17.7581C26.9812 16.9414 28.9913 16.5046 31.1282 16.4571C30.3927 17.0524 29.6959 17.7062 29.0415 18.4177C25.2997 22.4845 23.2391 28.072 23.2391 34.1509C23.2391 40.2295 25.2997 45.817 29.0415 49.8838C31.1944 52.2241 33.7703 53.9329 36.6972 54.9624C38.7754 55.6936 41.0135 56.0639 43.3491 56.0639C47.2712 56.0639 52.9246 54.9949 57.586 49.9016C59.175 48.1662 60.4582 46.1564 61.4146 43.9138H69.0954C67.8266 47.9718 65.7576 51.6581 63.0319 54.6898ZM11.9162 54.6822C6.94054 49.3365 4.20043 42.0349 4.20043 34.1234C4.20043 26.1899 6.94835 18.8338 11.9384 13.4108C16.9837 7.92693 23.9376 4.90726 31.5192 4.90726C33.4091 4.90726 35.2801 5.09407 37.0801 5.46329H37.0804C46.6724 7.43034 54.213 14.5651 57.2667 24.3602H49.5862C48.6296 22.1176 47.3455 20.1087 45.7565 18.3724C43.6248 16.0434 41.0696 14.3414 38.1625 13.3142C36.0891 12.5813 33.8539 12.21 31.5192 12.21C28.6517 12.21 25.941 12.7702 23.4622 13.8749C21.1044 14.9258 19.001 16.4448 17.2114 18.3902C16.769 18.8713 16.3499 19.3691 15.9522 19.8812C13.4268 22.7026 11.8127 26.4177 11.2818 31.0449C11.1743 31.8609 11.1098 32.6851 11.0907 33.5146L11.1049 33.5149L11.0907 33.5146C11.0861 33.717 11.0835 33.9196 11.0835 34.1234L11.0838 34.1509H11.0835C11.0835 34.2171 11.0844 34.2833 11.0855 34.3491V34.3597C11.0858 34.3655 11.0858 34.3708 11.0858 34.3767L11.0864 34.4288L11.0867 34.451L11.087 34.4592V34.4642L11.0879 34.5371C11.0879 35.0466 11.1026 35.5561 11.1292 36.0652C11.1312 36.1396 11.1332 36.2134 11.135 36.286C11.2269 40.0526 12.0766 43.7326 13.6603 47.2234C16.5166 53.5189 21.8079 59.2207 27.9777 62.8335C21.7631 62.0608 16.1531 59.2341 11.9162 54.6822ZM60.653 11.0898C64.7275 14.5434 67.554 19.0947 68.9188 24.3602H61.6316C59.4065 16.1482 54.4679 9.43691 47.8438 5.28087C52.6437 6.03279 57.0109 8.00277 60.653 11.0898ZM45.7565 49.8744C47.3455 48.1384 48.6296 46.1292 49.5862 43.8866H56.7629C56.1286 45.0285 55.378 46.0756 54.5156 47.0172C51.0174 50.8398 46.7692 51.7548 43.7022 51.8177C44.4233 51.2286 45.1094 50.5812 45.7565 49.8744ZM73.964 39.6442H62.5868H46.6837L46.1883 41.0543C45.3906 43.3253 44.2123 45.3222 42.6861 46.9897C41.1699 48.6458 39.3908 49.8887 37.3899 50.6942C35.3934 49.8782 33.6177 48.6358 32.1045 46.9912C29.0881 43.7127 27.4265 39.1526 27.4265 34.1509C27.4265 29.1493 29.0881 24.5891 32.1045 21.3103C33.5042 19.7892 35.144 18.6031 36.9784 17.7856C37.1365 17.715 37.3003 17.6477 37.4645 17.5818C39.4396 18.3937 41.1936 19.6267 42.6861 21.2568C44.2123 22.9249 45.3906 24.9218 46.1883 27.1925L46.6837 28.6026H59.9808H59.9967H62.6117H73.984C73.984 20.2683 68.737 12.4103 63.34 7.83587C57.8259 3.16245 50.9133 0.692074 43.3491 0.692074C41.3809 0.692074 39.4162 0.873612 37.5018 1.22702C35.5556 0.855458 33.5455 0.664551 31.5192 0.664551C22.7633 0.664551 14.7216 4.16383 8.87519 10.5182C3.16056 16.7292 0.0129395 25.1124 0.0129395 34.1234C0.0129395 43.1215 3.15854 51.4564 8.8697 57.5924C14.691 63.8472 22.7249 67.292 31.4912 67.292C33.4862 67.292 36.4272 67.2912 38.6295 66.8016C40.4219 67.129 42.2184 67.2935 44.017 67.2935C47.7799 67.2935 51.5498 66.5767 55.3023 65.1432C58.1698 64.0475 62.3732 61.8404 66.1275 57.5467C66.1289 57.5452 66.1301 57.5438 66.1315 57.5423C66.137 57.5359 66.1428 57.5294 66.1483 57.5233V57.523C69.9205 53.3183 73.5314 47.1434 73.964 39.6442Z" fill="url(#paint0_linear_1_1002)"/>
<mask id="mask1_1_1002" style="mask-type:alpha" maskUnits="userSpaceOnUse" x="0" y="0" width="74" height="68">
<path fill-rule="evenodd" clip-rule="evenodd" d="M63.0319 54.6898L63.0111 54.7135C59.8198 58.3712 56.254 60.2455 53.8248 61.1736C47.0435 63.7647 40.1954 63.6598 33.4715 60.8621C26.617 58.0105 20.4839 52.1056 17.4652 45.4513C16.1201 42.4873 15.3988 39.3684 15.321 36.1812C15.3045 35.5203 15.2808 34.7547 15.2765 34.61L15.2748 34.4695L15.2739 34.4056L15.2736 34.3866L15.2727 34.3187C15.2719 34.2575 15.271 34.1963 15.271 34.1348L15.2707 34.1108C15.271 33.9439 15.2733 33.7779 15.2771 33.6124C15.3808 29.0512 17.1557 24.6726 20.2744 21.2828C21.6741 19.7614 23.3142 18.5756 25.1483 17.7581C26.9812 16.9414 28.9913 16.5046 31.1282 16.4571C30.3927 17.0524 29.6959 17.7062 29.0415 18.4177C25.2997 22.4845 23.2391 28.072 23.2391 34.1509C23.2391 40.2295 25.2997 45.817 29.0415 49.8838C31.1944 52.2241 33.7703 53.9329 36.6972 54.9624C38.7754 55.6936 41.0135 56.0639 43.3491 56.0639C47.2712 56.0639 52.9246 54.9949 57.586 49.9016C59.175 48.1662 60.4582 46.1564 61.4146 43.9138H69.0954C67.8266 47.9718 65.7576 51.6581 63.0319 54.6898ZM11.9162 54.6822C6.94054 49.3365 4.20043 42.0349 4.20043 34.1234C4.20043 26.1899 6.94835 18.8338 11.9384 13.4108C16.9837 7.92693 23.9376 4.90726 31.5192 4.90726C33.4091 4.90726 35.2801 5.09407 37.0801 5.46329H37.0804C46.6724 7.43034 54.213 14.5651 57.2667 24.3602H49.5862C48.6296 22.1176 47.3455 20.1087 45.7565 18.3724C43.6248 16.0434 41.0696 14.3414 38.1625 13.3142C36.0891 12.5813 33.8539 12.21 31.5192 12.21C28.6517 12.21 25.941 12.7702 23.4622 13.8749C21.1044 14.9258 19.001 16.4448 17.2114 18.3902C16.769 18.8713 16.3499 19.3691 15.9522 19.8812C13.4268 22.7026 11.8127 26.4177 11.2818 31.0449C11.1743 31.8609 11.1098 32.6851 11.0907 33.5146L11.1049 33.5149L11.0907 33.5146C11.0861 33.717 11.0835 33.9196 11.0835 34.1234L11.0838 34.1509H11.0835C11.0835 34.2171 11.0844 34.2833 11.0855 34.3491V34.3597C11.0858 34.3655 11.0858 34.3708 11.0858 34.3767L11.0864 34.4288L11.0867 34.451L11.087 34.4592V34.4642L11.0879 34.5371C11.0879 35.0466 11.1026 35.5561 11.1292 36.0652C11.1312 36.1396 11.1332 36.2134 11.135 36.286C11.2269 40.0526 12.0766 43.7326 13.6603 47.2234C16.5166 53.5189 21.8079 59.2207 27.9777 62.8335C21.7631 62.0608 16.1531 59.2341 11.9162 54.6822ZM60.653 11.0898C64.7275 14.5434 67.554 19.0947 68.9188 24.3602H61.6316C59.4065 16.1482 54.4679 9.43691 47.8438 5.28087C52.6437 6.03279 57.0109 8.00277 60.653 11.0898ZM45.7565 49.8744C47.3455 48.1384 48.6296 46.1292 49.5862 43.8866H56.7629C56.1286 45.0285 55.378 46.0756 54.5156 47.0172C51.0174 50.8398 46.7692 51.7548 43.7022 51.8177C44.4233 51.2286 45.1094 50.5812 45.7565 49.8744ZM73.964 39.6442H62.5868H46.6837L46.1883 41.0543C45.3906 43.3253 44.2123 45.3222 42.6861 46.9897C41.1699 48.6458 39.3908 49.8887 37.3899 50.6942C35.3934 49.8782 33.6177 48.6358 32.1045 46.9912C29.0881 43.7127 27.4265 39.1526 27.4265 34.1509C27.4265 29.1493 29.0881 24.5891 32.1045 21.3103C33.5042 19.7892 35.144 18.6031 36.9784 17.7856C37.1365 17.715 37.3003 17.6477 37.4645 17.5818C39.4396 18.3937 41.1936 19.6267 42.6861 21.2568C44.2123 22.9249 45.3906 24.9218 46.1883 27.1925L46.6837 28.6026H59.9808H59.9967H62.6117H73.984C73.984 20.2683 68.737 12.4103 63.34 7.83587C57.8259 3.16245 50.9133 0.692074 43.3491 0.692074C41.3809 0.692074 39.4162 0.873612 37.5018 1.22702C35.5556 0.855458 33.5455 0.664551 31.5192 0.664551C22.7633 0.664551 14.7216 4.16383 8.87519 10.5182C3.16056 16.7292 0.0129395 25.1124 0.0129395 34.1234C0.0129395 43.1215 3.15854 51.4564 8.8697 57.5924C14.691 63.8472 22.7249 67.292 31.4912 67.292C33.4862 67.292 36.4272 67.2912 38.6295 66.8016C40.4219 67.129 42.2184 67.2935 44.017 67.2935C47.7799 67.2935 51.5498 66.5767 55.3023 65.1432C58.1698 64.0475 62.3732 61.8404 66.1275 57.5467C66.1289 57.5452 66.1301 57.5438 66.1315 57.5423C66.137 57.5359 66.1428 57.5294 66.1483 57.5233V57.523C69.9205 53.3183 73.5314 47.1434 73.964 39.6442Z" fill="white"/>
</mask>
<g mask="url(#mask1_1_1002)">
<path opacity="0.6" fill-rule="evenodd" clip-rule="evenodd" d="M2.03638 47.2205V69.034H40.8688V67.1495C26.8912 65.5206 16.6128 55.0366 13.5966 47.2205H2.03638Z" fill="url(#paint1_linear_1_1002)"/>
<path opacity="0.601618" fill-rule="evenodd" clip-rule="evenodd" d="M23.134 28.6351H37.4413V22.7202C38.5534 23.3597 39.5603 24.1146 40.4785 24.8879C42.6273 23.6645 44.6654 23.6645 42.7868 21.4537C40.9082 19.243 37.7291 17.2081 34.2084 16.5916C30.7809 15.9914 26.4525 17.0765 24.599 18.1332C23.7918 18.5929 23.8722 20.2095 24.9268 21.6966L23.134 28.6351Z" fill="url(#paint2_linear_1_1002)"/>
</g>
<defs>
<linearGradient id="paint0_linear_1_1002" x1="95.7729" y1="39.1673" x2="47.4479" y2="-27.502" gradientUnits="userSpaceOnUse">
<stop stop-color="#B9775D"/>
<stop offset="0.218935" stop-color="#E89077"/>
<stop offset="0.739443" stop-color="#FDBDA4"/>
<stop offset="1" stop-color="#B57359"/>
</linearGradient>
<linearGradient id="paint1_linear_1_1002" x1="2.03638" y1="69.034" x2="40.8688" y2="69.034" gradientUnits="userSpaceOnUse">
<stop stop-color="#30353B" stop-opacity="0.01"/>
<stop offset="1" stop-color="#30353B" stop-opacity="0.6"/>
</linearGradient>
<linearGradient id="paint2_linear_1_1002" x1="43.5272" y1="28.6351" x2="43.5272" y2="16.42" gradientUnits="userSpaceOnUse">
<stop stop-color="#30353B" stop-opacity="0.01"/>
<stop offset="1" stop-color="#30353B" stop-opacity="0.6"/>
</linearGradient>
</defs>
</svg>
