<svg width="107" height="25" viewBox="0 0 107 25" fill="none" xmlns="http://www.w3.org/2000/svg">
<path d="M47.8252 12.0589C47.8252 13.3319 47.5875 14.5306 47.1173 15.6577C46.6445 16.7848 45.9974 17.7607 45.1786 18.5828C44.3597 19.4049 43.393 20.0546 42.2784 20.5293C41.1637 21.0041 39.9645 21.2401 38.6808 21.2401C37.3971 21.2401 36.1953 21.0014 35.0727 20.5293C33.9501 20.0546 32.9781 19.4076 32.1593 18.5828C31.3405 17.7607 30.6933 16.7848 30.2205 15.6577C29.7477 14.5306 29.51 13.3319 29.51 12.0589C29.51 10.7886 29.7477 9.58728 30.2205 8.46019C30.6933 7.3331 31.3378 6.35717 32.1593 5.53506C32.9781 4.71294 33.9475 4.06321 35.0727 3.5885C36.1953 3.1138 37.3971 2.87512 38.6808 2.87512C39.9645 2.87512 41.1637 3.1138 42.2784 3.5885C43.393 4.06321 44.3597 4.71029 45.1786 5.53506C45.9974 6.35717 46.6445 7.3331 47.1173 8.46019C47.5901 9.58993 47.8252 10.7886 47.8252 12.0589ZM43.3164 12.0589C43.3164 11.3137 43.1975 10.6136 42.9625 9.96121C42.7247 9.30882 42.3999 8.74926 41.9878 8.28251C41.5731 7.81576 41.0792 7.44713 40.506 7.17663C39.9328 6.90613 39.3147 6.77088 38.657 6.77088C37.9993 6.77088 37.3813 6.90613 36.8081 7.17663C36.2349 7.44713 35.741 7.81576 35.3263 8.28251C34.9116 8.74926 34.5867 9.30882 34.3516 9.96121C34.1139 10.6136 33.9977 11.3137 33.9977 12.0589C33.9977 12.8041 34.1165 13.5043 34.3516 14.1566C34.5867 14.809 34.9116 15.3686 35.3263 15.8353C35.741 16.3021 36.2349 16.6707 36.8081 16.9412C37.3813 17.2117 37.9993 17.347 38.657 17.347C39.3147 17.347 39.9328 17.2117 40.506 16.9412C41.0792 16.6707 41.5731 16.3021 41.9878 15.8353C42.4025 15.3686 42.7274 14.809 42.9625 14.1566C43.2002 13.5069 43.3164 12.8068 43.3164 12.0589Z" fill="#86939E"/>
<path d="M60.2635 19.9697L54.5634 9.05949V21.24H50.5618V3.43994H56.032L60.3137 11.9846L64.5689 3.43994H70.0392V21.24H65.9345V9.16026L60.2635 19.9697Z" fill="#86939E"/>
<path d="M73.5311 21.24V3.43994H84.926L84.3079 7.10233H77.8867V10.6109H84.2709V14.1698H77.8867V21.24H73.5311Z" fill="#86939E"/>
<path d="M95.605 21.24V3.43994H107L106.382 7.10233H99.9606V10.6109H106.345V14.1698H99.9606V21.24H95.605Z" fill="#86939E"/>
<path d="M87.9316 21.24V3.43994H92.2873V21.24H87.9316Z" fill="#86939E"/>
<path d="M12.5735 24.2845C6.01231 24.2845 0.676758 18.9249 0.676758 12.34C0.676758 5.75251 6.01231 0.395508 12.5735 0.395508C19.1346 0.395508 24.4701 5.75251 24.4701 12.34C24.4701 18.9249 19.132 24.2845 12.5735 24.2845ZM12.5735 1.7215C6.74132 1.7215 1.99744 6.48445 1.99744 12.34C1.99744 18.1956 6.74132 22.9585 12.5735 22.9585C18.4056 22.9585 23.1495 18.1956 23.1495 12.34C23.1495 6.48445 18.4056 1.7215 12.5735 1.7215Z" fill="#86939E"/>
<path d="M6.8548 10.2609C6.40841 10.2609 5.98315 10.001 5.79034 9.5634C5.53148 8.97466 5.79826 8.28514 6.38464 8.02525L12.6024 5.27515L18.7621 8.0279C19.3484 8.29045 19.6126 8.97996 19.3511 9.5687C19.0896 10.1574 18.4028 10.4226 17.8165 10.1601L12.5971 7.82635L7.32233 10.1601C7.17177 10.229 7.01329 10.2609 6.8548 10.2609Z" fill="#86939E"/>
<path d="M17.1401 18.8984C16.4983 18.8984 15.9779 18.3759 15.9779 17.7315V12.2684C15.9779 11.624 16.4983 11.1016 17.1401 11.1016C17.782 11.1016 18.3023 11.624 18.3023 12.2684V17.7315C18.3023 18.3759 17.782 18.8984 17.1401 18.8984Z" fill="#86939E"/>
<path d="M12.5733 18.8984C11.9315 18.8984 11.4111 18.3759 11.4111 17.7315V12.2684C11.4111 11.624 11.9315 11.1016 12.5733 11.1016C13.2152 11.1016 13.7355 11.624 13.7355 12.2684V17.7315C13.7355 18.3759 13.2152 18.8984 12.5733 18.8984Z" fill="#86939E"/>
<path d="M8.00631 18.8984C7.36446 18.8984 6.84412 18.3759 6.84412 17.7315V12.2684C6.84412 11.624 7.36446 11.1016 8.00631 11.1016C8.64817 11.1016 9.16851 11.624 9.16851 12.2684V17.7315C9.16851 18.3759 8.64817 18.8984 8.00631 18.8984Z" fill="#86939E"/>
</svg>
