<svg width="169" height="72" viewBox="0 0 169 72" fill="none" xmlns="http://www.w3.org/2000/svg">
<path d="M37.7379 1.48191H36.615V2.60486V69.4081V70.5311H37.7379H132.599C151.666 70.5311 167.123 55.0739 167.123 36.0065C167.123 16.9391 151.666 1.48191 132.599 1.48191H37.7379Z" fill="white" stroke="#1F55A0" stroke-width="2.2459"/>
<path fill-rule="evenodd" clip-rule="evenodd" d="M121.472 40.3018L121.472 40.3016L121.472 40.3008C121.542 40.1015 121.62 39.8795 121.709 39.6098C121.803 39.8565 121.888 40.0854 121.968 40.3017L121.968 40.3022C122.166 40.838 122.335 41.2962 122.552 41.7544C123.817 44.6377 126.09 46.0198 129.135 45.996C132.158 45.996 134.383 44.5424 135.531 41.6829C136.656 38.8473 136.679 35.8687 136.07 32.9139C135.297 29.0774 133.024 26.909 129.581 26.6707C126.207 26.4562 123.56 28.3387 122.224 31.9131C122.187 32.0087 122.164 32.1129 122.141 32.2179C122.079 32.5051 122.016 32.7981 121.639 32.9377C121.498 32.4849 121.357 32.056 121.193 31.6033C120.139 28.577 117.96 26.8613 114.962 26.6945C111.916 26.5277 109.339 28.0766 108.074 31.0075C106.645 34.2959 106.645 37.7273 107.746 41.0872C108.8 44.3041 111.307 46.0436 114.563 46.0198C117.843 45.9721 120.163 44.2088 121.264 40.9204C121.325 40.7192 121.394 40.5247 121.472 40.3018ZM113.275 41.1587C112.244 39.729 112.057 38.0371 112.057 36.3214C112.057 34.701 112.197 33.0807 113.134 31.6748C113.931 30.4595 114.821 30.531 115.641 31.6509C117.07 33.6049 117.117 39.0617 115.758 41.111C114.962 42.3025 114.095 42.3025 113.275 41.1587ZM130.213 31.7224C131.15 33.1522 131.267 34.8202 131.267 36.512C131.267 38.1086 131.174 39.7051 130.33 41.111C129.581 42.3263 128.69 42.3263 127.823 41.1825C126.254 39.1094 126.184 33.7717 127.706 31.6509C128.55 30.4357 129.463 30.5786 130.213 31.7224ZM80.9678 39.2293C79.2576 41.0165 78.8593 43.0896 79.3513 45.544C83.99 45.544 88.5818 45.544 93.244 45.5678V40.3016H89.1441C89.0738 40.9927 89.027 41.5884 88.9801 42.2318H84.4117C84.3927 41.7298 84.6505 41.4781 84.8986 41.236L84.8986 41.2359C84.9567 41.1792 85.0143 41.123 85.0677 41.0641C86.2677 39.7815 87.715 38.8041 89.1489 37.8359L89.1489 37.8359L89.149 37.8358C89.3666 37.6888 89.584 37.5421 89.8001 37.3945C91.7212 36.0601 92.6349 34.2729 92.3537 31.9138C92.0492 29.245 90.4092 27.4816 87.7619 26.9097C84.6694 26.2425 80.9444 27.6723 79.5153 30.079C79.6218 30.1933 79.7297 30.3076 79.838 30.4222L79.838 30.4223L79.8381 30.4223L79.8381 30.4223C80.1588 30.7619 80.4827 31.1048 80.7804 31.4611C81.018 31.7454 81.2306 32.0466 81.448 32.3547C81.595 32.5631 81.7442 32.7746 81.9049 32.9861C82.1567 32.7596 82.3564 32.5779 82.5273 32.4224C82.7698 32.2017 82.9542 32.0339 83.1466 31.8662C84.5757 30.6271 86.6139 30.4603 87.3402 31.6517C88.371 33.3197 87.1293 34.2729 85.9579 35.1307C84.2243 36.3937 82.4906 37.6566 80.9678 39.2293ZM100.366 45.5672H94.8838C96.1495 42.8378 97.4016 40.1432 98.6585 37.4383L98.6616 37.4316L98.6621 37.4306C99.7304 35.1316 100.802 32.8251 101.889 30.4834H97.4608C97.4024 30.7956 97.353 31.0985 97.3014 31.4153L97.3014 31.4154C97.2703 31.6063 97.2384 31.8024 97.2031 32.0085H93.3844V27.1712H107.371C107.488 28.8392 107.535 30.3643 106.785 31.937C105.097 35.3528 103.503 38.796 101.902 42.2562L101.901 42.2582C101.391 43.3596 100.881 44.4627 100.366 45.5672ZM146.206 42.2556C146.009 42.2405 145.802 42.2246 145.581 42.2074C145.581 37.1318 145.581 32.1754 145.558 27.4572C142.585 26.0654 140.708 27.5234 138.785 29.0167C138.042 29.5944 137.291 30.1773 136.468 30.6026C136.82 31.4843 137.171 32.3422 137.546 33.2238C138.014 33.0332 138.448 32.8604 138.881 32.6877C139.315 32.5149 139.748 32.3422 140.217 32.1515V42.2312C139.783 42.2669 139.373 42.2967 138.963 42.3265C138.553 42.3563 138.143 42.3861 137.71 42.4218C137.7 42.6568 137.684 42.8866 137.668 43.112C137.609 43.9607 137.554 44.7476 137.85 45.5196H147.924V42.398C147.355 42.3437 146.827 42.3032 146.206 42.2556Z" fill="#1F55A0"/>
<path d="M79.621 57.1338C79.621 57.1579 79.637 57.1739 79.6611 57.1739H80.5429C80.5669 57.1739 80.5829 57.1579 80.5829 57.1338V55.0416C80.5829 55.0175 80.591 55.0095 80.615 55.0095H81.8736C81.8896 55.0095 81.9056 55.0255 81.9137 55.0496L82.8436 57.1499C82.8596 57.1659 82.8756 57.1739 82.8836 57.1739H83.8055C83.8376 57.1739 83.8536 57.1499 83.8456 57.1178L82.8275 54.8251C82.8195 54.8171 82.8195 54.8011 82.8275 54.7931C83.3486 54.4964 83.7013 53.9353 83.7013 53.2699C83.7013 52.789 83.533 52.3801 83.1963 52.0434C82.8596 51.6987 82.4668 51.5304 82.0099 51.5304H79.6611C79.637 51.5304 79.621 51.5464 79.621 51.5705V57.1338ZM80.5829 52.4442C80.5829 52.4202 80.591 52.4122 80.615 52.4122H81.9297C82.1461 52.4122 82.3385 52.5004 82.4989 52.6687C82.6672 52.8371 82.7474 53.0375 82.7474 53.2699C82.7474 53.7269 82.3786 54.1197 81.9618 54.1277H80.623C80.599 54.1277 80.5829 54.1117 80.5829 54.0876V52.4442Z" fill="#1F55A0"/>
<path d="M86.9133 57.1338C86.9133 57.1579 86.9293 57.1739 86.9533 57.1739H90.8734C90.8974 57.1739 90.9134 57.1579 90.9134 57.1338V56.3322C90.9134 56.3081 90.8974 56.2921 90.8734 56.2921H87.9153C87.8913 56.2921 87.8752 56.2761 87.8752 56.252V54.7931C87.8752 54.769 87.8913 54.753 87.9153 54.753H90.4725C90.4966 54.753 90.5126 54.7369 90.5126 54.7129V53.9112C90.5126 53.8872 90.4966 53.8712 90.4725 53.8712H87.9153C87.8913 53.8712 87.8752 53.8551 87.8752 53.8311V52.4523C87.8752 52.4282 87.8913 52.4122 87.9153 52.4122H90.8734C90.8974 52.4122 90.9134 52.3962 90.9134 52.3721V51.5705C90.9134 51.5464 90.8974 51.5304 90.8734 51.5304H86.9533C86.9293 51.5304 86.9133 51.5464 86.9133 51.5705V57.1338Z" fill="#1F55A0"/>
<path d="M93.9763 54.3521C93.9763 56.0436 94.9062 57.2541 96.5175 57.2541C97.0546 57.2541 97.5516 57.0697 97.9925 56.709C98.0326 56.6769 98.0646 56.6929 98.0726 56.725L98.1528 57.1419C98.1608 57.1659 98.1768 57.1739 98.1929 57.1739H98.9224C98.9464 57.1739 98.9625 57.1659 98.9625 57.1419V53.9593C98.9625 53.9353 98.9464 53.9193 98.9224 53.9193H96.5495C96.5255 53.9193 96.5175 53.9353 96.5175 53.9593V54.753C96.5175 54.777 96.5255 54.7931 96.5495 54.7931H98.0486C98.0726 54.7931 98.0807 54.8011 98.0807 54.8251V54.9053C98.0326 55.8753 97.5115 56.3643 96.5175 56.3643C95.5314 56.3643 94.9783 55.6268 94.9783 54.3521C94.9783 53.7349 95.1146 53.2459 95.3871 52.8851C95.6677 52.5244 96.0445 52.34 96.5175 52.34C97.0626 52.34 97.5436 52.5805 97.768 53.0615C97.784 53.1016 97.8161 53.1176 97.8642 53.1176H98.8101C98.8422 53.1176 98.8582 53.0856 98.8502 53.0615C98.5857 52.1396 97.9043 51.4502 96.5175 51.4502C94.9062 51.4502 93.9763 52.6607 93.9763 54.3521Z" fill="#1F55A0"/>
<path d="M102.219 57.1338C102.219 57.1579 102.235 57.1739 102.259 57.1739H103.141C103.165 57.1739 103.181 57.1579 103.181 57.1338V51.5705C103.181 51.5464 103.165 51.5304 103.141 51.5304H102.259C102.235 51.5304 102.219 51.5464 102.219 51.5705V57.1338Z" fill="#1F55A0"/>
<path d="M106.33 55.6268C106.33 56.3883 106.931 57.2541 108.526 57.2541C109.192 57.2541 109.721 57.1018 110.105 56.7891C110.498 56.4765 110.691 56.0516 110.691 55.5225C110.683 54.7049 110.298 54.3041 109.769 54.0716C109.536 53.9754 109.4 53.9353 109.135 53.8792C108.879 53.8231 108.775 53.8231 108.526 53.791C108.19 53.7509 107.861 53.6948 107.62 53.5505C107.484 53.4623 107.372 53.31 107.372 53.1176C107.372 52.9012 107.468 52.7168 107.66 52.5645C107.861 52.4122 108.093 52.332 108.366 52.332C108.679 52.332 108.935 52.4122 109.127 52.5645C109.312 52.7168 109.408 52.8771 109.408 53.0615C109.408 53.1016 109.424 53.1176 109.448 53.1176H110.378C110.402 53.1176 110.41 53.1016 110.41 53.0775C110.41 52.0354 109.432 51.4502 108.366 51.4502C107.372 51.4262 106.362 52.0915 106.37 53.1176C106.37 54.264 107.212 54.6247 108.526 54.753C109.304 54.8251 109.689 55.1378 109.689 55.5225C109.689 55.755 109.576 55.9554 109.352 56.1238C109.135 56.2921 108.855 56.3723 108.526 56.3723C108.198 56.3723 107.909 56.3001 107.676 56.1478C107.444 55.9955 107.332 55.8272 107.332 55.6268C107.332 55.6027 107.316 55.5867 107.292 55.5867H106.37C106.346 55.5867 106.33 55.6027 106.33 55.6268Z" fill="#1F55A0"/>
<path d="M113.291 52.3721C113.291 52.3962 113.307 52.4122 113.331 52.4122H114.814C114.838 52.4122 114.854 52.4282 114.854 52.4523V57.1338C114.854 57.1579 114.87 57.1739 114.894 57.1739H115.776C115.8 57.1739 115.816 57.1579 115.816 57.1338V52.4523C115.816 52.4282 115.832 52.4122 115.856 52.4122H117.339C117.363 52.4122 117.379 52.3962 117.379 52.3721V51.5705C117.379 51.5464 117.363 51.5304 117.339 51.5304H113.331C113.307 51.5304 113.291 51.5464 113.291 51.5705V52.3721Z" fill="#1F55A0"/>
<path d="M120.404 57.1338C120.404 57.1579 120.42 57.1739 120.444 57.1739H124.364C124.388 57.1739 124.404 57.1579 124.404 57.1338V56.3322C124.404 56.3081 124.388 56.2921 124.364 56.2921H121.406C121.382 56.2921 121.366 56.2761 121.366 56.252V54.7931C121.366 54.769 121.382 54.753 121.406 54.753H123.963C123.987 54.753 124.003 54.7369 124.003 54.7129V53.9112C124.003 53.8872 123.987 53.8712 123.963 53.8712H121.406C121.382 53.8712 121.366 53.8551 121.366 53.8311V52.4523C121.366 52.4282 121.382 52.4122 121.406 52.4122H124.364C124.388 52.4122 124.404 52.3962 124.404 52.3721V51.5705C124.404 51.5464 124.388 51.5304 124.364 51.5304H120.444C120.42 51.5304 120.404 51.5464 120.404 51.5705V57.1338Z" fill="#1F55A0"/>
<path d="M127.705 57.1338C127.705 57.1579 127.721 57.1739 127.745 57.1739H128.627C128.651 57.1739 128.667 57.1579 128.667 57.1338V55.0416C128.667 55.0175 128.675 55.0095 128.699 55.0095H129.958C129.974 55.0095 129.99 55.0255 129.998 55.0496L130.928 57.1499C130.944 57.1659 130.96 57.1739 130.968 57.1739H131.89C131.922 57.1739 131.938 57.1499 131.93 57.1178L130.912 54.8251C130.904 54.8171 130.904 54.8011 130.912 54.7931C131.433 54.4964 131.786 53.9353 131.786 53.2699C131.786 52.789 131.617 52.3801 131.281 52.0434C130.944 51.6987 130.551 51.5304 130.094 51.5304H127.745C127.721 51.5304 127.705 51.5464 127.705 51.5705V57.1338ZM128.667 52.4442C128.667 52.4202 128.675 52.4122 128.699 52.4122H130.014C130.23 52.4122 130.423 52.5004 130.583 52.6687C130.751 52.8371 130.832 53.0375 130.832 53.2699C130.832 53.7269 130.463 54.1197 130.046 54.1277H128.707C128.683 54.1277 128.667 54.1117 128.667 54.0876V52.4442Z" fill="#1F55A0"/>
<path d="M134.998 57.1338C134.998 57.1579 135.014 57.1739 135.038 57.1739H138.958C138.982 57.1739 138.998 57.1579 138.998 57.1338V56.3322C138.998 56.3081 138.982 56.2921 138.958 56.2921H136C135.976 56.2921 135.959 56.2761 135.959 56.252V54.7931C135.959 54.769 135.976 54.753 136 54.753H138.557C138.581 54.753 138.597 54.7369 138.597 54.7129V53.9112C138.597 53.8872 138.581 53.8712 138.557 53.8712H136C135.976 53.8712 135.959 53.8551 135.959 53.8311V52.4523C135.959 52.4282 135.976 52.4122 136 52.4122H138.958C138.982 52.4122 138.998 52.3962 138.998 52.3721V51.5705C138.998 51.5464 138.982 51.5304 138.958 51.5304H135.038C135.014 51.5304 134.998 51.5464 134.998 51.5705V57.1338Z" fill="#1F55A0"/>
<path d="M142.299 57.1338C142.299 57.1579 142.315 57.1739 142.339 57.1739H144.399C146.059 57.1739 146.925 56.1398 146.925 54.4083C146.925 52.7248 146.083 51.5304 144.399 51.5304H142.339C142.315 51.5304 142.299 51.5464 142.299 51.5705V57.1338ZM143.261 52.4442C143.261 52.4202 143.269 52.4122 143.293 52.4122H144.399C145.353 52.4122 145.923 53.1898 145.923 54.4083C145.923 55.6187 145.361 56.2921 144.399 56.2921H143.301C143.277 56.2921 143.261 56.2761 143.261 56.252V52.4442Z" fill="#1F55A0"/>
<path d="M79.6852 21.0601C79.6852 21.0841 79.7012 21.1002 79.7253 21.1002H83.3086C83.3326 21.1002 83.3487 21.0841 83.3487 21.0601V20.2584C83.3487 20.2344 83.3326 20.2184 83.3086 20.2184H81.064C81.0319 20.2184 81.0159 20.1703 81.04 20.1462L82.5631 18.7353C82.7555 18.551 82.8757 18.4227 83.0601 18.1582C83.2525 17.8776 83.3567 17.5249 83.3567 17.1401C83.3567 16.635 83.1883 16.2102 82.8597 15.8815C82.531 15.5448 82.0821 15.3765 81.5129 15.3765C80.9838 15.3765 80.5429 15.5448 80.1982 15.8815C79.8535 16.2182 79.6852 16.635 79.6852 17.1401C79.6852 17.1641 79.7012 17.1802 79.7253 17.1802H80.599C80.6231 17.1802 80.6391 17.1641 80.6391 17.1401C80.6391 16.9156 80.7193 16.7152 80.8796 16.5388C81.048 16.3545 81.2564 16.2663 81.5129 16.2663C82.1382 16.2663 82.3947 16.7633 82.3947 17.1401C82.4027 17.4367 82.2264 17.7573 81.8737 18.086L79.7253 20.2184C79.7012 20.2424 79.6852 20.2825 79.6852 20.3226V21.0601Z" fill="#1F55A0"/>
<path d="M85.6683 19.2083C85.8206 20.0741 86.1813 20.7394 86.9028 21.036C87.3918 21.2284 88.0973 21.2284 88.5863 21.036C89.2997 20.7394 89.6765 20.0741 89.8128 19.2083C89.909 18.6391 89.909 17.9096 89.8128 17.3565C89.6845 16.4827 89.2997 15.8094 88.5863 15.5288C88.0973 15.3284 87.3918 15.3284 86.9028 15.5288C86.1813 15.8094 85.8206 16.4827 85.6683 17.3565C85.5801 17.9096 85.5801 18.6391 85.6683 19.2083ZM87.7445 20.2985C86.9108 20.2985 86.6062 19.4568 86.6062 18.2784C86.6062 17.092 86.9108 16.2583 87.7445 16.2583C88.5061 16.2583 88.8829 16.9316 88.8829 18.2784C88.8829 19.6252 88.5061 20.2985 87.7445 20.2985Z" fill="#1F55A0"/>
<path d="M92.0536 17.1401C92.0536 17.1641 92.0696 17.1802 92.0937 17.1802H93.2801C93.4084 17.1802 93.4965 17.2683 93.4965 17.4046V21.0601C93.4965 21.0841 93.5126 21.1002 93.5366 21.1002H94.4184C94.4425 21.1002 94.4585 21.0841 94.4585 21.0601V15.4967C94.4585 15.4727 94.4425 15.4566 94.4184 15.4566H93.5366C93.5126 15.4566 93.4965 15.4727 93.4965 15.4967V15.9617C93.5046 16.1781 93.3042 16.3785 93.0717 16.3785H92.0937C92.0696 16.3785 92.0536 16.3945 92.0536 16.4186V17.1401Z" fill="#1F55A0"/>
<path d="M96.7966 19.4648C96.7966 20.3627 97.3898 21.1803 98.6163 21.1803C99.8749 21.1563 100.484 20.4188 100.484 19.545C100.484 19.2484 100.404 18.9838 100.252 18.7594C100.099 18.5349 99.931 18.3746 99.7466 18.2864C99.7146 18.2624 99.7146 18.2383 99.7466 18.2063C100.107 17.9898 100.412 17.597 100.412 17.0439C100.412 16.146 99.6745 15.3765 98.6163 15.3765C98.0953 15.3765 97.6624 15.5448 97.3337 15.8815C97.005 16.2182 96.8367 16.635 96.8367 17.1401C96.8367 17.1641 96.8527 17.1802 96.8768 17.1802H97.7506C97.7746 17.1802 97.7906 17.1641 97.7906 17.1401C97.7906 16.9156 97.8708 16.7152 98.0231 16.5308C98.1754 16.3464 98.3758 16.2583 98.6163 16.2583C98.8568 16.2583 99.0572 16.3384 99.2095 16.5068C99.3699 16.6671 99.45 16.8435 99.45 17.0439C99.45 17.5489 99.0733 17.8054 98.6163 17.8054H98.3518C98.3277 17.8054 98.3117 17.8215 98.3117 17.8455V18.6472C98.3117 18.6712 98.3277 18.6872 98.3518 18.6872H98.6163C99.1374 18.6953 99.5222 18.9758 99.5222 19.545C99.5222 19.7374 99.434 19.9137 99.2576 20.0661C99.0893 20.2184 98.8729 20.2985 98.6163 20.2985C97.9991 20.2985 97.7586 19.7614 97.7586 19.4648C97.7586 19.4408 97.7425 19.4247 97.7185 19.4247H96.8367C96.8126 19.4247 96.7966 19.4408 96.7966 19.4648Z" fill="#1F55A0"/>
<circle cx="36.4016" cy="36.0065" r="34.5246" fill="white" stroke="#1F55A0" stroke-width="2.2459"/>
<path fill-rule="evenodd" clip-rule="evenodd" d="M35.1104 12.6796C35.9792 12.5898 36.9678 12.6197 37.7764 12.7096L37.8364 12.7695L37.8665 12.7096C45.0259 13.2787 51.6465 17.2031 55.6606 23.3142C55.4567 23.4161 55.2528 23.3932 55.0301 23.3681C54.9255 23.3564 54.8167 23.3441 54.7019 23.3441C53.4138 21.4569 51.7963 19.7494 49.9688 18.3414L49.6692 18.4613L47.5722 19.6894V19.8391C48.0816 20.3785 48.5011 20.8877 48.8905 21.457C49.3696 22.0261 49.819 22.685 50.1785 23.3441C49.9873 23.4158 49.7386 23.4113 49.4785 23.4065C49.4127 23.4053 49.3463 23.4041 49.2798 23.4041C48.5011 22.2657 47.6322 21.0974 46.7037 20.1089C46.6327 20.1379 46.5618 20.167 46.491 20.196C45.2465 20.7056 44.0232 21.2066 42.7192 21.5468L42.6596 21.6067L43.4085 23.3441C43.2497 23.4348 43.0052 23.4226 42.7788 23.4113C42.706 23.4077 42.6351 23.4041 42.5694 23.4041L41.7609 21.8463L41.6111 21.8163C39.9333 22.2357 38.1061 22.4155 36.3685 22.5054C36.3047 22.649 36.3089 22.8096 36.3131 22.9737C36.3169 23.1176 36.3207 23.2641 36.2787 23.4041H35.4698C35.4348 23.2989 35.4408 23.1663 35.4469 23.0313C35.4564 22.8202 35.4662 22.6033 35.3201 22.4754C33.4628 22.4155 31.6354 22.2059 29.8979 21.8163C29.7261 22.1084 29.5839 22.4201 29.443 22.7289C29.3382 22.9587 29.2341 23.1868 29.1191 23.4041C29.0856 23.4072 29.0533 23.4102 29.0221 23.4131C28.7457 23.4391 28.5463 23.4579 28.2503 23.4041L28.9992 21.6666L28.8794 21.5468C27.8155 21.2565 26.7906 20.8688 25.7575 20.4781C25.5107 20.3847 25.2634 20.2911 25.015 20.1987C24.0563 21.1872 23.2476 22.2957 22.4987 23.4041C22.1991 23.464 21.8096 23.4939 21.6 23.4041C22.2332 22.2476 23.0944 21.167 23.9507 20.0926C24.0259 19.9982 24.1012 19.9037 24.1763 19.8093C23.8204 19.5815 23.4374 19.3673 23.0499 19.1505C22.6219 18.9111 22.1884 18.6686 21.7797 18.4013C21.0135 18.8938 20.3474 19.5364 19.6442 20.2147C19.5775 20.279 19.5105 20.3436 19.4431 20.4085C18.5443 21.367 17.7356 22.3556 17.0165 23.3742C16.8313 23.4482 16.6231 23.4307 16.4204 23.4136C16.2953 23.4031 16.1723 23.3927 16.058 23.4041C20.192 17.0233 26.8124 13.2787 34.002 12.7096C34.3913 12.6796 34.7809 12.6496 35.1104 12.6796ZM40.8622 14.1176V14.0576C37.7167 13.2487 33.972 13.3087 30.7966 14.0576C30.8169 14.1999 30.9613 14.2732 31.0988 14.343C31.164 14.3761 31.2277 14.4084 31.2759 14.447C34.032 16.2145 38.2559 16.0347 40.8622 14.1176ZM49.0402 17.8322L49.1002 17.7124C46.9433 16.1546 44.5766 15.0163 42.0604 14.3572C42.0157 14.3891 41.9668 14.4211 41.9171 14.4536C41.7338 14.5736 41.5383 14.7015 41.4911 14.8665C43.3783 15.9748 45.2357 17.3828 46.8233 19.0004H46.9731L49.0402 17.8322ZM24.8652 19.0902C26.5428 17.4128 28.3702 16.0348 30.2274 14.8665C30.1395 14.7786 30.0311 14.701 29.9201 14.6216C29.842 14.5657 29.7625 14.5089 29.6882 14.447C29.5694 14.3452 29.4603 14.3876 29.3444 14.4326C29.2557 14.467 29.163 14.503 29.0592 14.477V14.4172C28.9598 14.4172 28.9016 14.4789 28.8335 14.5511C28.8194 14.5661 28.8049 14.5814 28.7896 14.5968C26.5728 15.3158 24.4758 16.3643 22.5885 17.7722V17.8322C23.3074 18.3414 24.0563 18.7907 24.8652 19.0902ZM45.8948 19.4797L45.9548 19.3898C44.3669 17.7722 42.4796 16.3643 40.5325 15.3757C40.3238 15.487 40.1022 15.5854 39.8828 15.6828C39.6296 15.7952 39.3791 15.9063 39.1546 16.0347C40.2929 17.5626 41.3115 19.1502 42.24 20.7379C43.5281 20.4683 44.7264 19.9889 45.8948 19.4797ZM32.3843 16.2145L32.4742 15.9748C32.1749 15.8352 31.8757 15.7222 31.5764 15.6091C31.4263 15.5524 31.2762 15.4957 31.1261 15.4356C29.2089 16.4541 27.4715 17.7722 25.8239 19.36L25.7639 19.5396C26.9022 20.0489 28.1005 20.4383 29.3287 20.7679L29.4485 20.7379C29.4971 20.6553 29.5456 20.5727 29.5942 20.4901C30.445 19.0422 31.3074 17.5747 32.3843 16.2145ZM35.4197 20.1167C35.4319 18.8983 35.4443 17.6597 35.38 16.5439L33.4628 16.2743C32.2346 17.7422 31.2161 19.33 30.3472 20.9776C30.9796 21.1883 31.7401 21.2892 32.4283 21.3805C32.6205 21.406 32.807 21.4308 32.9835 21.457C33.2035 21.4727 33.4174 21.4945 33.6283 21.5161C34.2214 21.5768 34.7912 21.6351 35.41 21.5468C35.41 21.0792 35.4148 20.5995 35.4197 20.1167ZM41.2814 20.9776C40.5026 19.33 39.3643 17.8022 38.1959 16.3044C37.8963 16.3493 37.5818 16.3942 37.2672 16.4391C36.9526 16.4841 36.6381 16.529 36.3385 16.5739C36.3087 18.2215 36.2787 19.9889 36.3385 21.5768C38.0163 21.5768 39.6639 21.367 41.2814 20.9776Z" fill="#1F55A0"/>
<path d="M24.8652 27.1187C27.8609 24.9318 32.4742 25.0815 35.7694 26.4896L37.1474 27.2385C37.2376 27.0221 37.23 26.7516 37.2228 26.492C37.218 26.3203 37.2134 26.1534 37.2372 26.0103C38.5853 25.9504 40.2329 25.9504 41.5809 25.9803C41.5899 26.7224 41.6043 27.4351 41.6183 28.1352C41.6514 29.7809 41.683 31.3567 41.6409 33.08C40.5537 33.1254 39.415 33.1193 38.3545 33.1136C38.0125 33.1118 37.6786 33.11 37.3572 33.11C36.1289 31.1629 33.972 30.4439 31.875 30.1444C31.7108 30.1394 31.5375 30.1269 31.36 30.1142C30.4692 30.0504 29.4739 29.979 28.9992 30.8033C28.9393 31.1329 29.0891 31.4024 29.3287 31.6122L29.868 31.8818L37.1176 34.0087C39.544 34.6378 41.9405 36.9446 42.2699 39.4909C42.5996 42.0969 41.4013 44.5235 39.1546 45.7818C36.069 47.3992 32.0548 47.0997 28.9393 45.7818C28.77 45.6921 28.6007 45.5991 28.4315 45.5062C28.0915 45.3195 27.7515 45.1328 27.4115 44.9729L27.3515 46.4107L22.8581 46.4406C22.7683 44.0441 22.7983 41.2581 22.8581 38.8318L26.9022 38.8017C27.0221 38.9515 27.1196 39.1164 27.217 39.2812C27.3143 39.4459 27.4116 39.6106 27.5313 39.7603C29.5685 41.9173 32.624 42.5164 35.4398 41.7376L35.4497 41.732C35.6579 41.613 35.9192 41.4637 35.9192 41.1982C35.9791 40.8687 35.6196 40.599 35.35 40.4794C34.0933 40.0464 32.8171 39.6656 31.5425 39.2853C30.0828 38.8497 28.6252 38.4147 27.2018 37.9029C25.2546 37.154 23.2176 35.5664 22.8282 33.4096C22.3189 31.1329 22.918 28.5565 24.8652 27.1187Z" fill="#1F55A0"/>
<path fill-rule="evenodd" clip-rule="evenodd" d="M47.3327 27.0288C51.347 24.7521 57.2783 24.9318 61.1727 27.4483C62.5207 28.3768 63.6292 29.665 64.1683 31.1029C65.5164 34.8174 65.3666 39.7603 63.1497 43.0555C62.191 44.3138 60.9029 45.2423 59.5549 45.8116L59.4276 45.8678C58.9783 46.1111 58.323 46.2797 58.1171 46.3209C53.7733 47.549 48.8905 46.8899 45.5353 43.8943C42.6596 41.0484 42.4498 36.525 43.2587 32.7205C43.708 30.4139 45.1459 28.1672 47.3327 27.0288ZM57.2334 33.6558C57.1809 32.9924 57.127 32.3107 56.7691 31.762C56.05 30.8034 54.9117 30.6236 53.7436 30.6236C52.6351 30.7136 51.4067 31.0131 50.9574 32.1814C50.4292 33.9331 50.5204 35.9429 50.608 37.8756C50.6148 38.0251 50.6215 38.1741 50.628 38.3225L50.6309 38.3484C50.7499 39.3892 50.8752 40.4849 51.7964 41.1385C52.9045 41.7675 54.5224 41.9173 55.7206 41.3781C56.4695 41.1084 56.9487 40.3595 57.0985 39.6407C57.3132 38.395 57.2971 36.9955 57.2818 35.6738C57.2758 35.1518 57.2699 34.642 57.2784 34.1585C57.2601 33.9939 57.2468 33.8254 57.2334 33.6558Z" fill="#1F55A0"/>
<path d="M8.41908 25.6807L10.2763 25.6508L21.57 25.6807C21.6598 27.2385 21.6299 29.0659 21.6 30.7733L18.6343 30.8033L18.5743 30.8933L18.5443 41.4079C19.1041 41.478 19.7149 41.4765 20.3231 41.475C20.7565 41.4739 21.1886 41.4729 21.6 41.4977V46.4406H8.38907C8.32913 44.793 8.32913 43.1755 8.38907 41.4977L11.3548 41.438L11.3847 41.0185V30.8333C10.7235 30.7732 10.0756 30.7667 9.41428 30.76C9.08693 30.7567 8.75628 30.7534 8.41908 30.7435C8.38907 29.1257 8.38907 27.2685 8.41908 25.6807Z" fill="#1F55A0"/>
<path fill-rule="evenodd" clip-rule="evenodd" d="M29.0048 48.6475C29.0929 48.6524 29.1822 48.6575 29.2689 48.6575L30.0776 50.2451C31.8152 49.8859 33.6126 49.6758 35.4698 49.5863C35.5787 49.4047 35.5667 49.2343 35.5536 49.0483C35.5451 48.9271 35.5361 48.7993 35.5598 48.6575H36.3385C36.4025 48.7852 36.3982 48.9554 36.394 49.1274C36.3902 49.2781 36.3865 49.4302 36.4285 49.5562C38.2258 49.6758 40.1729 49.8859 41.9405 50.2749L42.7494 48.6575H43.5583C43.487 49.0133 43.3207 49.3585 43.1535 49.7057C43.0392 49.9431 42.9244 50.1814 42.8392 50.4247L42.989 50.5447C44.337 50.9042 45.5353 51.3837 46.8535 51.9226C47.8112 50.9651 48.572 49.8385 49.2996 48.7612C49.323 48.7266 49.3463 48.692 49.3696 48.6575H50.2985C49.5794 49.9455 48.6509 51.114 47.6922 52.2824C48.0742 52.5371 48.4817 52.7664 48.8922 52.9974C49.2539 53.201 49.6179 53.4058 49.9688 53.6304C50.0288 53.72 50.2084 53.7501 50.2683 53.6603C52.0058 52.2824 53.5937 50.5149 54.8517 48.6873C55.1512 48.6575 55.5409 48.6575 55.8103 48.6873C50.7177 56.536 41.9405 60.5205 32.7437 59.2921C30.0776 58.9325 27.5613 58.0938 25.1948 56.9256C25.2546 56.8955 25.1948 56.8356 25.1648 56.8356C25.1348 56.8356 25.1348 56.8654 25.1348 56.8654C21.6299 55.0981 18.2748 52.1025 16.1178 48.6873C16.1514 48.6845 16.1838 48.6817 16.2155 48.679C16.5231 48.6527 16.7505 48.6332 17.0765 48.6873C18.3347 50.5745 20.0122 52.3719 21.8096 53.7501C22.4274 53.4633 23.029 53.0951 23.6262 52.7295C23.8399 52.5988 24.053 52.4683 24.2661 52.3421C24.2065 52.2677 24.147 52.1934 24.0876 52.1192C23.1893 50.9981 22.3043 49.8935 21.6299 48.6575C21.7296 48.6756 21.8538 48.6609 21.9829 48.6456C22.2806 48.6102 22.6038 48.5719 22.7083 48.9272C23.3674 49.9455 24.1763 50.9642 25.015 51.8927L25.1348 51.9527C26.423 51.4135 27.7411 50.9343 29.0891 50.5447L29.1789 50.4549L28.43 48.6873C28.579 48.6235 28.7886 48.6353 29.0048 48.6475ZM34.6006 55.696C34.9229 55.659 35.2487 55.6215 35.5598 55.5475L35.5298 50.485C33.8522 50.485 32.2346 50.7243 30.6768 51.0238L30.527 51.1438C31.3957 52.7914 32.4143 54.3793 33.6424 55.847C33.9453 55.7713 34.2711 55.7339 34.6006 55.696ZM41.4911 51.1736L41.4613 51.0841C39.8734 50.6945 38.1661 50.5149 36.4585 50.485C36.3685 52.2523 36.3985 53.8101 36.4585 55.5776L36.9678 55.6373C37.1727 55.6493 37.3729 55.6905 37.5721 55.7316C37.8677 55.7925 38.1613 55.8529 38.4656 55.8169C39.6039 54.3492 40.6524 52.7914 41.4911 51.1736ZM32.6539 56.1165C31.5755 54.559 30.497 53.0012 29.6283 51.3536L29.5085 51.3234C28.2503 51.6531 27.0222 52.0724 25.8537 52.6416V52.7318C27.4415 54.3794 29.3287 55.7572 31.3059 56.7458C31.5154 56.6261 31.7473 56.5288 31.9792 56.4315C32.2116 56.334 32.444 56.2365 32.6539 56.1165ZM42.7792 55.4875C43.9175 54.6789 45.1459 53.72 46.1046 52.6118C44.966 52.0425 43.7379 51.623 42.4498 51.3234L42.36 51.3837C41.521 52.9711 40.5626 54.4689 39.484 55.9369L39.3942 56.1466L40.6823 56.7156C41.2463 56.4338 41.7918 56.0966 42.3333 55.7618C42.4821 55.6698 42.6307 55.578 42.7792 55.4875ZM43.708 57.3148C45.685 56.5658 47.6322 55.6671 49.3097 54.3191C48.5909 53.8101 47.8118 53.3607 47.0033 53.0313C45.3557 54.6789 43.6179 56.0568 41.7009 57.1951L41.6409 57.2849L41.643 57.2868C41.8521 57.4658 42.0612 57.6449 42.3 57.7641L43.708 57.3148ZM29.7182 57.7641C29.9278 57.6445 30.1676 57.4646 30.3174 57.2849C28.4 56.0568 26.6326 54.7685 24.9252 53.0612C24.2536 53.3452 23.6265 53.7406 23.0055 54.1322C22.9063 54.1948 22.8073 54.2572 22.7083 54.3191V54.4092C24.8652 55.9667 27.2018 57.1053 29.7182 57.7641ZM40.9345 58.1203C41.0161 58.107 41.1013 58.0932 41.0418 57.9741C38.3158 55.9968 33.972 55.9968 31.1861 57.8244C31.1574 57.8529 31.1166 57.8754 31.0763 57.8976C30.9899 57.9452 30.9056 57.9917 30.9463 58.0938C34.1218 58.8728 37.6567 58.8427 40.832 58.1538C40.8523 58.1336 40.8929 58.127 40.9345 58.1203Z" fill="#1F55A0"/>
</svg>
