<svg width="82" height="44" viewBox="0 0 82 44" fill="none" xmlns="http://www.w3.org/2000/svg">
<g clip-path="url(#clip0_101_350)">
<path d="M4.4328 9.6284L4.4779 14.978L0.398362 12.8834L0.344238 6.25464L4.4328 9.6284Z" fill="#86939E"/>
<path d="M4.52066 20.2134L4.56576 25.5921L0.506516 25.9819L0.452393 19.3038L4.52066 20.2134Z" fill="#86939E"/>
<path d="M0.560791 32.6511L4.60876 30.9731L4.65386 36.4572L0.617169 39.4635L0.560791 32.6511Z" fill="#86939E"/>
<path d="M9.15065 13.8848L9.17997 17.6282L6.97895 16.4969L6.94287 12.0658L9.15065 13.8848Z" fill="#86939E"/>
<path d="M7.01489 20.8743L9.2114 21.3604L9.24071 25.106L7.05097 25.3121L7.01489 20.8743Z" fill="#86939E"/>
<path d="M7.08936 29.7679L9.27233 28.8606L9.3039 32.6712L7.12544 34.2931L7.08936 29.7679Z" fill="#86939E"/>
<path d="M12.4928 16.2706L12.5154 19.1067L11.1781 18.4189L11.151 15.1661L12.4928 16.2706Z" fill="#86939E"/>
<path d="M11.2051 21.7076L12.5379 22.0033L12.5627 24.8238L11.2321 24.9537L11.2051 21.7076Z" fill="#86939E"/>
<path d="M11.259 28.2177L12.5851 27.6666L12.6076 30.5408L11.2861 31.522L11.259 28.2177Z" fill="#86939E"/>
<path d="M35.1929 39.952L29.7964 39.9094L31.1269 43.9463L37.8134 44L35.1929 39.952Z" fill="#86939E"/>
<path d="M24.5123 39.8668L19.0864 39.822L17.9115 43.8387L24.6476 43.8947L24.5123 39.8668Z" fill="#86939E"/>
<path d="M11.1823 43.7849L13.6584 39.7794L8.12429 39.7346L4.30859 43.7289L11.1823 43.7849Z" fill="#86939E"/>
<path d="M31.7986 35.2856L28.0212 35.2543L28.7406 37.434L33.2126 37.4698L31.7986 35.2856Z" fill="#86939E"/>
<path d="M24.3251 37.3981L24.2574 35.2251L20.4801 35.1937L19.8486 37.3622L24.3251 37.3981Z" fill="#86939E"/>
<path d="M15.3542 37.3242L16.6893 35.1647L12.8465 35.1333L10.7876 37.2884L15.3542 37.3242Z" fill="#86939E"/>
<path d="M30.0328 31.9791L27.171 31.9545L27.6085 33.2784L30.8897 33.3053L30.0328 31.9791Z" fill="#86939E"/>
<path d="M24.2913 33.2516L24.2485 31.9321L21.4025 31.9097L21.0168 33.2247L24.2913 33.2516Z" fill="#86939E"/>
<path d="M17.7243 33.2L18.5339 31.885L15.636 31.8625L14.3889 33.1731L17.7243 33.2Z" fill="#86939E"/>
<path d="M20.9245 3.79492H21.5604V4.00774C21.5604 4.77165 21.4296 5.24882 21.1658 5.43923C20.9019 5.62965 20.2412 5.72598 19.1812 5.72598C18.2318 5.72598 17.6275 5.55797 17.3704 5.22193C17.1133 4.8859 16.9847 4.09735 16.9847 2.85179C16.9847 1.87954 17.0141 1.26796 17.0727 1.01706C17.1313 0.766152 17.2959 0.542131 17.5711 0.344993C17.8891 0.114251 18.5836 0 19.6481 0C20.3697 0 20.8568 0.112011 21.1071 0.333792C21.3575 0.555573 21.4837 0.985693 21.4837 1.61967L21.4882 1.77201H20.8523L20.8478 1.59951C20.8478 1.14699 20.7734 0.858001 20.6245 0.728069C20.4757 0.598137 20.1419 0.535411 19.621 0.535411C18.7077 0.535411 18.1484 0.611578 17.9477 0.761672C17.7447 0.911766 17.6455 1.33069 17.6455 2.01619C17.6455 3.59106 17.7132 4.51627 17.8485 4.78733C17.9838 5.0584 18.4483 5.19505 19.2399 5.19505C19.9931 5.19505 20.4644 5.13681 20.6493 5.01807C20.8365 4.89934 20.929 4.60364 20.929 4.13095L20.9245 3.79492Z" fill="#86939E"/>
<path d="M28.5785 0.0582275V5.66772H27.9381V3.06683H24.623V5.66772H23.9825V0.0582275H24.623V2.53142H27.9381V0.0582275H28.5785Z" fill="#86939E"/>
<path d="M34.8387 4.48045H31.9679L31.5326 5.66776H30.8561L32.9331 0.0560303H33.8306L35.9482 5.66776H35.2784L34.8387 4.48045ZM34.6515 4.00328L33.3931 0.575759L32.1505 4.00328H34.6515Z" fill="#86939E"/>
<path d="M44.4547 0.0582705V5.66776H43.8142V1.18062V0.844585L43.8187 0.676569L43.8232 0.508553H43.8074L43.7578 0.640725C43.733 0.705692 43.7172 0.748256 43.7082 0.768418L43.6 1.03052L41.6696 5.67224H41.0291L39.0942 1.08429L38.9814 0.824423L38.9318 0.69225C38.9183 0.663128 38.9025 0.620564 38.8822 0.564558H38.8664L38.8709 0.716893L38.8754 0.873707V1.18286V5.66776H38.235V0.0582705H39.3445L40.8555 3.68741L41.0968 4.27435L41.2163 4.56558L41.3335 4.8568H41.3493L41.4666 4.56558C41.5252 4.42668 41.5636 4.32811 41.5839 4.27435L41.8297 3.68965L43.3338 0.0560303H44.4547V0.0582705Z" fill="#86939E"/>
<path d="M47.2306 5.66772V0.0582275H49.7383C50.4329 0.0582275 50.8884 0.152316 51.1027 0.342734C51.3169 0.530912 51.4251 0.93191 51.4251 1.54349C51.4251 2.16627 51.1838 2.5583 50.699 2.72408V2.73752C51.3011 2.88089 51.601 3.31998 51.601 4.05701C51.601 4.65066 51.4815 5.06958 51.247 5.31152C51.0102 5.55347 50.5975 5.6722 50.0112 5.6722H47.2306V5.66772ZM47.871 2.5247H49.5534C50.0878 2.5247 50.4329 2.46197 50.5862 2.33652C50.7396 2.21107 50.8163 1.9288 50.8163 1.4942C50.8163 1.11561 50.7486 0.871424 50.6155 0.759414C50.4802 0.647403 50.1848 0.593638 49.7293 0.593638H47.8733V2.5247H47.871ZM47.871 5.13455H49.2286L49.806 5.13007C50.2931 5.13007 50.6133 5.06734 50.7644 4.94413C50.9155 4.81868 50.9899 4.55657 50.9899 4.15333C50.9899 3.65153 50.9132 3.34462 50.7621 3.23037C50.6088 3.11612 50.1961 3.06011 49.5196 3.06011H47.871V5.13455V5.13455Z" fill="#86939E"/>
<path d="M54.5937 0.591398V2.5023H57.4712V3.03771H54.5937V5.13455H57.5975V5.66996H53.9554V0.0582275H57.5975V0.593638H54.5937V0.591398Z" fill="#86939E"/>
<path d="M60.1189 5.66772V0.0582275H62.8183C63.4272 0.0582275 63.8557 0.176959 64.106 0.416661C64.3563 0.656364 64.4803 1.06856 64.4803 1.65774C64.4803 2.17523 64.4127 2.5359 64.2774 2.73976C64.1421 2.94362 63.8827 3.07579 63.5016 3.13628V3.14972C64.1037 3.19452 64.4037 3.5552 64.4037 4.23398V5.66772H63.7632V4.37736C63.7632 3.72321 63.4768 3.3939 62.904 3.3939H62.692H60.7616V5.66772H60.1189ZM60.7594 2.86073H62.6086C63.0957 2.86073 63.4272 2.78681 63.6053 2.64119C63.7835 2.49558 63.8715 2.21779 63.8715 1.81231C63.8715 1.30603 63.8061 0.974474 63.673 0.82214C63.5422 0.667565 63.2603 0.591398 62.8273 0.591398H60.7594V2.86073Z" fill="#86939E"/>
<path d="M73.0227 0C74.0939 0 74.7637 0.154575 75.0321 0.463724C75.3004 0.772873 75.4357 1.54799 75.4357 2.78682C75.4357 4.12199 75.3072 4.94415 75.0501 5.25778C74.793 5.56917 74.1165 5.72598 73.0227 5.72598C71.9335 5.72598 71.2592 5.57141 70.9976 5.26226C70.736 4.95311 70.6052 4.15335 70.6052 2.86075V2.46647L70.6142 1.93554C70.6142 1.18955 70.7834 0.681024 71.1217 0.407719C71.4599 0.136653 72.0959 0 73.0227 0ZM73.0182 0.535411C72.1207 0.535411 71.5975 0.63398 71.4441 0.831119C71.2908 1.02826 71.2164 1.7048 71.2164 2.86075C71.2164 4.01894 71.293 4.69772 71.4441 4.89486C71.5975 5.092 72.1207 5.19057 73.0182 5.19057C73.918 5.19057 74.4435 5.092 74.5968 4.89486C74.7502 4.69772 74.8246 4.01894 74.8246 2.86075V2.4956L74.8201 1.96467C74.8201 1.34637 74.7141 0.95209 74.5044 0.784074C74.2946 0.618298 73.7985 0.535411 73.0182 0.535411Z" fill="#86939E"/>
<path d="M78.507 0.591398V2.55158H81.2696V3.08699H78.507V5.66772H77.8666V0.0582275H81.344V0.593638H78.507V0.591398Z" fill="#86939E"/>
<path d="M17.3772 17.9418V9.94202H21.3507C22.4783 9.94202 23.2699 10.1862 23.7232 10.6746C24.1742 11.1629 24.4019 12.0187 24.4019 13.2418C24.4019 15.2379 24.2193 16.5215 23.8562 17.0905C23.4931 17.6595 22.6745 17.9441 21.3981 17.9441H17.3772V17.9418ZM18.9107 16.6649H21.0959C21.8311 16.6649 22.3047 16.4969 22.5212 16.1631C22.7354 15.8293 22.8436 15.0923 22.8436 13.9498C22.8436 12.7692 22.7467 12.0187 22.5527 11.6983C22.3588 11.378 21.9055 11.2167 21.1906 11.2167H18.9107V16.6649Z" fill="#86939E"/>
<path d="M30.6938 9.94202V17.9418H29.1603V9.94202H30.6938Z" fill="#86939E"/>
<path d="M38.9452 13.6876H42.5039L42.5287 15.276C42.5287 16.4319 42.3077 17.1779 41.8679 17.5117C41.4282 17.8455 40.4449 18.0135 38.9204 18.0135C37.5223 18.0135 36.5976 17.7917 36.1421 17.3459C35.6866 16.9001 35.4611 15.9928 35.4611 14.6196C35.4611 12.87 35.5513 11.7633 35.7339 11.3018C35.9594 10.7395 36.3 10.3609 36.7578 10.166C37.2156 9.97113 37.9936 9.87256 39.0918 9.87256C40.5284 9.87256 41.4575 10.0249 41.8747 10.3273C42.2919 10.6298 42.5016 11.3018 42.5016 12.3413H40.9501C40.923 11.8171 40.8057 11.4922 40.6028 11.3645C40.3998 11.2368 39.8879 11.1741 39.0715 11.1741C38.183 11.1741 37.6192 11.2839 37.3802 11.5034C37.1411 11.723 37.0216 12.236 37.0216 13.0447L37.0148 13.8467L37.0261 14.8727C37.0261 15.6657 37.1456 16.172 37.3824 16.3871C37.6192 16.6044 38.1672 16.7119 39.0287 16.7119C39.8653 16.7119 40.3976 16.6201 40.6253 16.4364C40.8531 16.2527 40.9659 15.8203 40.9659 15.1348L40.9704 14.8055H38.9385V13.6876H38.9452Z" fill="#86939E"/>
<path d="M48.7777 9.94202V17.9418H47.2443V9.94202H48.7777Z" fill="#86939E"/>
<path d="M57.0699 11.3018V17.9418H55.5364V11.3018H53.2046V9.94202H59.4874V11.3018H57.0699Z" fill="#86939E"/>
<path d="M68.7944 16.4073H65.3057L64.8028 17.9418H63.1791L65.8672 9.94202H68.1719L70.9029 17.9418H69.3108L68.7944 16.4073ZM68.4381 15.2872L67.0399 11.1204L65.6665 15.2872H68.4381Z" fill="#86939E"/>
<path d="M76.7731 9.94202V16.582H80.564V17.9418H75.2396V9.94202H76.7731Z" fill="#86939E"/>
<path d="M20.9245 26.2508H21.5604V26.4637C21.5604 27.2276 21.4296 27.7047 21.1658 27.8952C20.9019 28.0856 20.2412 28.1819 19.1812 28.1819C18.2318 28.1819 17.6275 28.0139 17.3704 27.6779C17.1133 27.3418 16.9847 26.5533 16.9847 25.3077C16.9847 24.3355 17.0141 23.7239 17.0727 23.473C17.1313 23.2221 17.2959 22.9981 17.5711 22.8009C17.8913 22.5702 18.5859 22.4559 19.6526 22.4559C20.3742 22.4559 20.8613 22.5679 21.1116 22.7897C21.362 23.0115 21.4882 23.4416 21.4882 24.0756L21.4928 24.2279H20.8568L20.8523 24.0554C20.8523 23.6029 20.7779 23.3139 20.629 23.184C20.4802 23.0541 20.1464 22.9913 19.6255 22.9913C18.7122 22.9913 18.1529 23.0675 17.9522 23.2176C17.7492 23.3677 17.65 23.7866 17.65 24.4721C17.65 26.047 17.7177 26.9722 17.853 27.2433C17.9883 27.5143 18.4528 27.651 19.2444 27.651C19.9976 27.651 20.4689 27.5927 20.6538 27.474C20.841 27.3553 20.9335 27.0596 20.9335 26.5869L20.9245 26.2508Z" fill="#86939E"/>
<path d="M27.162 22.4559C28.2332 22.4559 28.903 22.6105 29.1713 22.9197C29.4397 23.2288 29.575 24.0039 29.575 25.2428C29.575 26.5779 29.4465 27.4001 29.1894 27.7137C28.9323 28.0251 28.2558 28.1819 27.162 28.1819C26.0728 28.1819 25.3985 28.0273 25.1369 27.7182C24.8753 27.409 24.7445 26.6093 24.7445 25.3167V24.9224L24.7535 24.3915C24.7535 23.6455 24.9227 23.137 25.2609 22.8637C25.6015 22.5926 26.2352 22.4559 27.162 22.4559ZM27.1575 22.9913C26.26 22.9913 25.7368 23.0899 25.5834 23.2871C25.4301 23.4842 25.3556 24.1607 25.3556 25.3167C25.3556 26.4749 25.4323 27.1537 25.5834 27.3508C25.7345 27.5479 26.26 27.6465 27.1575 27.6465C28.0573 27.6465 28.5827 27.5479 28.7361 27.3508C28.8894 27.1537 28.9639 26.4749 28.9639 25.3167V24.9515L28.9594 24.4206C28.9594 23.8023 28.8534 23.408 28.6436 23.24C28.4339 23.0742 27.9378 22.9913 27.1575 22.9913Z" fill="#86939E"/>
<path d="M39.3353 22.5142V28.1259H38.6948V23.6366V23.3005L38.6993 23.1325L38.7038 22.9645H38.688L38.6384 23.0967C38.6136 23.1616 38.5978 23.2042 38.5888 23.2244L38.4806 23.4865L36.5502 28.1282H35.9097L33.9748 23.5402L33.8621 23.2804L33.8124 23.1482C33.7989 23.1191 33.7831 23.0765 33.7628 23.0205H33.747L33.7515 23.1728L33.7561 23.3296V23.6388V28.1282H33.1156V22.5142H34.2251L35.7361 26.1433L35.9774 26.7303L36.0969 27.0215L36.2142 27.3127H36.2299L36.3472 27.0215C36.4058 26.8826 36.4442 26.784 36.4645 26.7303L36.7103 26.1456L38.2145 22.512H39.3353V22.5142Z" fill="#86939E"/>
<path d="M49.4407 22.5142V28.1259H48.8003V23.6366V23.3005L48.8048 23.1325L48.8093 22.9645H48.7935L48.7439 23.0967C48.7191 23.1616 48.7033 23.2042 48.6943 23.2244L48.586 23.4865L46.6556 28.1282H46.0152L44.0803 23.5402L43.9675 23.2804L43.9179 23.1482C43.9044 23.1191 43.8886 23.0765 43.8683 23.0205H43.8525L43.857 23.1728L43.8615 23.3296V23.6388V28.1282H43.2211V22.5142H44.3306L45.8415 26.1433L46.0828 26.7303L46.2024 27.0215L46.3196 27.3127H46.3354L46.4527 27.0215C46.5113 26.8826 46.5497 26.784 46.57 26.7303L46.8158 26.1456L48.3199 22.512H49.4407V22.5142Z" fill="#86939E"/>
<path d="M53.7344 23.0496V24.9605H56.6119V25.4959H53.7344V27.5927H56.7382V28.1281H53.0962V22.5142H56.7382V23.0496H53.7344Z" fill="#86939E"/>
<path d="M60.3667 28.1259V22.5142H63.0661C63.675 22.5142 64.1035 22.6329 64.3538 22.8726C64.6041 23.1123 64.7281 23.5245 64.7281 24.1137C64.7281 24.6312 64.6605 24.9918 64.5252 25.1957C64.3899 25.3996 64.1305 25.5317 63.7494 25.5922V25.6057C64.3515 25.6505 64.6515 26.0111 64.6515 26.6899V28.1237H64.011V26.8333C64.011 26.1791 63.7246 25.8498 63.1518 25.8498H62.9398H61.0072V28.1237H60.3667V28.1259ZM61.0072 25.3167H62.8564C63.3435 25.3167 63.675 25.2427 63.8531 25.0971C64.0313 24.9515 64.1192 24.6737 64.1192 24.2682C64.1192 23.762 64.0539 23.4304 63.9208 23.2781C63.79 23.1235 63.5081 23.0473 63.0751 23.0473H61.0072V25.3167Z" fill="#86939E"/>
<path d="M72.1926 26.2508H72.8286V26.4637C72.8286 27.2276 72.6978 27.7047 72.4339 27.8952C72.1701 28.0856 71.5093 28.1819 70.4494 28.1819C69.5 28.1819 68.8956 28.0139 68.6386 27.6779C68.3815 27.3418 68.2529 26.5533 68.2529 25.3077C68.2529 24.3355 68.2822 23.7239 68.3409 23.473C68.3995 23.2221 68.5641 22.9981 68.8393 22.8009C69.1595 22.5702 69.8541 22.4559 70.9207 22.4559C71.6424 22.4559 72.1295 22.5679 72.3798 22.7897C72.6301 23.0115 72.7564 23.4416 72.7564 24.0756L72.7609 24.2279H72.125L72.1205 24.0554C72.1205 23.6029 72.0461 23.3139 71.8972 23.184C71.7484 23.0541 71.4146 22.9913 70.8937 22.9913C69.9804 22.9913 69.4211 23.0675 69.2204 23.2176C69.0197 23.3677 68.9182 23.7866 68.9182 24.4721C68.9182 26.047 68.9858 26.9722 69.1212 27.2433C69.2565 27.5143 69.721 27.651 70.5126 27.651C71.2658 27.651 71.7371 27.5927 71.922 27.474C72.1092 27.3553 72.2017 27.0596 72.2017 26.5869L72.1926 26.2508Z" fill="#86939E"/>
<path d="M76.7683 23.0496V24.9605H79.6459V25.4959H76.7683V27.5927H79.7722V28.1281H76.1301V22.5142H79.7722V23.0496H76.7683Z" fill="#86939E"/>
</g>
<defs>
<clipPath id="clip0_101_350">
<rect width="81" height="44" fill="white" transform="translate(0.344238)"/>
</clipPath>
</defs>
</svg>
