<svg width="83" height="24" viewBox="0 0 83 24" fill="none" xmlns="http://www.w3.org/2000/svg">
<path fill-rule="evenodd" clip-rule="evenodd" d="M48.5428 0.0821533H53.5843V7.28574C54.7449 5.76076 56.2372 4.37132 58.7912 4.37132C62.6051 4.37132 64.8273 6.94665 64.8273 11.1148V22.9751H59.7861V12.7414C59.7861 10.3013 58.6584 9.0477 56.7349 9.0477C54.811 9.0477 53.5843 10.3013 53.5843 12.7414V22.9751H48.5428V0.0821533ZM21.0056 8.50554C19.0694 8.50554 17.7614 9.81593 17.263 11.8683H24.6678C24.251 9.84251 22.9702 8.50554 21.0056 8.50554ZM29.6616 14.2318C29.6616 14.6386 29.6285 15.113 29.5953 15.5875H17.2245C17.722 17.9255 19.3139 19.1456 21.5693 19.1456C23.6121 19.1456 24.9275 18.2298 26.3228 16.7914L29.2083 19.4003C27.5919 21.7686 24.7199 23.2802 21.5029 23.2802C16.1632 23.2802 12.2166 19.451 12.2166 13.8934V13.8257C12.2166 8.64109 15.8315 4.37131 21.0055 4.37131C26.9419 4.37131 29.6616 9.08162 29.6616 14.2318ZM30.8956 13.8934C30.8956 19.0781 34.8092 23.2801 40.149 23.2801C43.6974 23.2801 45.6873 21.8903 47.4122 19.9589L44.4603 16.9094C43.2332 18.0953 42.0722 18.8403 40.3809 18.8403C37.6283 18.8403 35.8704 16.6041 35.8704 13.8257V13.7582C35.8704 11.0811 37.6615 8.81038 40.182 8.81038C41.9729 8.81038 43.1007 9.58966 44.228 10.8095L47.3127 7.4211C45.6545 5.52327 43.5647 4.37148 40.2151 4.37148C34.7758 4.37148 30.8956 8.64092 30.8956 13.8257V13.8934ZM7.79766 9.21733H11.9102V4.81218H7.79766V0.0821549H2.75639V4.81218H0.633789V9.21733H2.75639V16.7684C2.75639 19.1729 3.23384 20.8103 4.18874 21.8211C5.00739 22.6921 6.40555 23.2846 8.0767 23.2846C9.54324 23.2846 11.2281 23.1103 11.9102 22.8315V18.6976C11.4151 18.8836 10.5323 18.9637 9.88428 18.9637C8.31551 18.9637 7.80175 17.9857 7.80175 15.9297L7.79766 9.21733Z" fill="#86939E"/>
<path fill-rule="evenodd" clip-rule="evenodd" d="M65.6006 5.64204V0.855591H67.553V5.59404C67.553 6.958 68.2758 7.66413 69.4675 7.66413C70.6595 7.66413 71.3823 6.982 71.3823 5.65358V0.855591H73.3347V5.58189C73.3347 8.11872 71.8257 9.36314 69.4424 9.36314C67.0583 9.36314 65.6006 8.10642 65.6006 5.64204Z" fill="#86939E"/>
<path fill-rule="evenodd" clip-rule="evenodd" d="M80.1992 0.855591L76.7514 4.57434V0.855591H74.8815V9.36314H76.7514V6.76209L77.7345 5.74127L80.3698 9.36314H82.6156L78.9976 4.46528L82.4579 0.855591H80.1992Z" fill="#86939E"/>
</svg>
