<svg width="74" height="74" viewBox="0 0 74 74" fill="none" xmlns="http://www.w3.org/2000/svg">
<path d="M36.6497 25.4819L50.9871 17.2326L36.6832 9L22.3123 17.2743V17.3577L36.6079 25.582V42.0388L36.6832 42.0805L36.7167 42.0638L36.6497 42.0221V25.4819Z" fill="url(#paint0_linear_1_3320)"/>
<path d="M51.0541 17.2744V33.8146L36.7167 42.0639L36.6497 42.0222V25.4819L50.9871 17.2327L51.0541 17.2744Z" fill="url(#paint1_linear_1_3320)"/>
<path d="M51.0541 17.2744V33.8146L36.7167 42.0639L36.6497 42.0222V25.4819L50.9871 17.2327L51.0541 17.2744Z" fill="url(#paint2_linear_1_3320)"/>
<path d="M36.6079 25.582V42.0388L22.3123 33.8146V17.3577L36.6079 25.582Z" fill="url(#paint3_linear_1_3320)"/>
<path d="M36.6079 25.582V42.0388L22.3123 33.8146V17.3577L36.6079 25.582Z" fill="url(#paint4_linear_1_3320)"/>
<path d="M51.029 50.2715L65.3664 42.0222L51.0624 33.7896L36.6916 42.0639V42.1473L50.9955 50.3716V66.8284L51.0624 66.8701L51.0959 66.8534L51.029 66.8117V50.2715Z" fill="url(#paint5_linear_1_3320)"/>
<path d="M65.4333 42.064V58.6043L51.0959 66.8536L51.029 66.8119V50.2716L65.3664 42.0223L65.4333 42.064Z" fill="url(#paint6_linear_1_3320)"/>
<path d="M65.4333 42.064V58.6043L51.0959 66.8536L51.029 66.8119V50.2716L65.3664 42.0223L65.4333 42.064Z" fill="url(#paint7_linear_1_3320)"/>
<path d="M50.9871 50.3716V66.8285L36.6916 58.6042V42.1474L50.9871 50.3716Z" fill="url(#paint8_linear_1_3320)"/>
<path d="M50.9871 50.3716V66.8285L36.6916 58.6042V42.1474L50.9871 50.3716Z" fill="url(#paint9_linear_1_3320)"/>
<path d="M22.3374 50.3714L36.6748 42.1221L22.3709 33.8979L8 42.1638V42.2473L22.3039 50.4798V66.9367L22.3709 66.9784L22.4044 66.9534L22.3374 66.9117V50.3714Z" fill="url(#paint10_linear_1_3320)"/>
<path d="M36.7501 42.1638V58.7041L22.4044 66.9534L22.3374 66.9117V50.3714L36.6748 42.1221L36.7501 42.1638Z" fill="url(#paint11_linear_1_3320)"/>
<path d="M36.7501 42.1638V58.7041L22.4044 66.9534L22.3374 66.9117V50.3714L36.6748 42.1221L36.7501 42.1638Z" fill="url(#paint12_linear_1_3320)"/>
<path d="M22.3039 50.4798V66.9366L8 58.704V42.2472L22.3039 50.4798Z" fill="url(#paint13_linear_1_3320)"/>
<path d="M22.3039 50.4798V66.9366L8 58.704V42.2472L22.3039 50.4798Z" fill="url(#paint14_linear_1_3320)"/>
<defs>
<linearGradient id="paint0_linear_1_3320" x1="51.0579" y1="17.2701" x2="22.36" y2="33.896" gradientUnits="userSpaceOnUse">
<stop stop-color="#BDDBBF" stop-opacity="0"/>
<stop offset="0.9995" stop-color="#BDDBBF"/>
</linearGradient>
<linearGradient id="paint1_linear_1_3320" x1="47.463" y1="35.8787" x2="37.8842" y2="19.2304" gradientUnits="userSpaceOnUse">
<stop stop-color="#BDDBBF" stop-opacity="0"/>
<stop offset="0.9995" stop-color="#BDDBBF"/>
</linearGradient>
<linearGradient id="paint2_linear_1_3320" x1="53.118" y1="36.4951" x2="32.9824" y2="21.5081" gradientUnits="userSpaceOnUse">
<stop stop-color="#BDDBBF" stop-opacity="0"/>
<stop offset="1" stop-color="#BDDBBF"/>
</linearGradient>
<linearGradient id="paint3_linear_1_3320" x1="51.0584" y1="66.9774" x2="22.4587" y2="17.2705" gradientUnits="userSpaceOnUse">
<stop stop-color="#BDDBBF" stop-opacity="0"/>
<stop offset="0.9995" stop-color="#BDDBBF"/>
</linearGradient>
<linearGradient id="paint4_linear_1_3320" x1="31.7945" y1="42.8864" x2="27.2417" y2="16.9774" gradientUnits="userSpaceOnUse">
<stop stop-color="#BDDBBF" stop-opacity="0"/>
<stop offset="0.8547" stop-color="#BDDBBF" stop-opacity="0.8547"/>
<stop offset="1" stop-color="#BDDBBF"/>
</linearGradient>
<linearGradient id="paint5_linear_1_3320" x1="65.4371" y1="42.0597" x2="36.7393" y2="58.6856" gradientUnits="userSpaceOnUse">
<stop stop-color="#BDDBBF" stop-opacity="0"/>
<stop offset="0.9995" stop-color="#BDDBBF"/>
</linearGradient>
<linearGradient id="paint6_linear_1_3320" x1="61.8423" y1="60.6684" x2="52.2635" y2="44.0201" gradientUnits="userSpaceOnUse">
<stop stop-color="#BDDBBF" stop-opacity="0"/>
<stop offset="0.9995" stop-color="#BDDBBF"/>
</linearGradient>
<linearGradient id="paint7_linear_1_3320" x1="72.7035" y1="64.8306" x2="49.0201" y2="47.7015" gradientUnits="userSpaceOnUse">
<stop stop-color="#BDDBBF" stop-opacity="0"/>
<stop offset="0.9236" stop-color="#BDDBBF" stop-opacity="0.9236"/>
<stop offset="1" stop-color="#BDDBBF"/>
</linearGradient>
<linearGradient id="paint8_linear_1_3320" x1="65.4377" y1="91.7671" x2="36.8381" y2="42.0602" gradientUnits="userSpaceOnUse">
<stop stop-color="#BDDBBF" stop-opacity="0"/>
<stop offset="0.9995" stop-color="#BDDBBF"/>
</linearGradient>
<linearGradient id="paint9_linear_1_3320" x1="50.9906" y1="66.8298" x2="37.6931" y2="43.7184" gradientUnits="userSpaceOnUse">
<stop offset="0.7335" stop-color="#BDDBBF" stop-opacity="0"/>
<stop offset="1" stop-color="#BDDBBF"/>
</linearGradient>
<linearGradient id="paint10_linear_1_3320" x1="36.7475" y1="42.1648" x2="8.04962" y2="58.7906" gradientUnits="userSpaceOnUse">
<stop stop-color="#BDDBBF" stop-opacity="0"/>
<stop offset="0.9995" stop-color="#BDDBBF"/>
</linearGradient>
<linearGradient id="paint11_linear_1_3320" x1="33.1526" y1="60.7732" x2="23.5738" y2="44.125" gradientUnits="userSpaceOnUse">
<stop stop-color="#BDDBBF" stop-opacity="0"/>
<stop offset="0.9995" stop-color="#BDDBBF"/>
</linearGradient>
<linearGradient id="paint12_linear_1_3320" x1="38.3543" y1="61.3167" x2="17.5918" y2="45.2412" gradientUnits="userSpaceOnUse">
<stop stop-color="#BDDBBF" stop-opacity="0"/>
<stop offset="1" stop-color="#BDDBBF"/>
</linearGradient>
<linearGradient id="paint13_linear_1_3320" x1="36.7481" y1="91.8719" x2="8.14843" y2="42.1651" gradientUnits="userSpaceOnUse">
<stop stop-color="#BDDBBF" stop-opacity="0"/>
<stop offset="0.9995" stop-color="#BDDBBF"/>
</linearGradient>
<linearGradient id="paint14_linear_1_3320" x1="20.0326" y1="63.0194" x2="7.57297" y2="41.3641" gradientUnits="userSpaceOnUse">
<stop offset="0.2122" stop-color="#BDDBBF" stop-opacity="0"/>
<stop offset="1" stop-color="#BDDBBF"/>
</linearGradient>
</defs>
</svg>
