<svg width="74" height="74" viewBox="0 0 74 74" fill="none" xmlns="http://www.w3.org/2000/svg">
<path d="M37.2728 50.6398C44.2816 50.6398 49.9633 45.0764 49.9633 38.2135C49.9633 31.3506 44.2816 25.7871 37.2728 25.7871C30.264 25.7871 24.5823 31.3506 24.5823 38.2135C24.5823 45.0764 30.264 50.6398 37.2728 50.6398Z" fill="url(#paint0_linear_1_4700)"/>
<path d="M58.6868 30.9547C55.5304 22.0301 46.9301 16.0331 37.2728 16.0331C27.3694 16.0331 18.6823 22.4342 15.7141 31.4155L12.3334 30.4656L15.0916 39.5036L22.8159 33.4145L19.3917 32.4504C21.8893 25.0428 29.0779 19.7759 37.2728 19.7759C45.294 19.7759 52.4465 24.7592 55.0743 32.181C55.4218 33.1593 56.5077 33.6767 57.5067 33.3365C58.4985 32.9962 59.027 31.9329 58.6868 30.9547Z" fill="url(#paint1_linear_1_4700)"/>
<path d="M62.9001 44.0261L58.5348 35.3071L52.128 42.3532L55.4942 42.8778C53.3586 50.8596 45.8949 56.651 37.2729 56.651C28.9549 56.651 21.5201 51.1928 19.1963 43.3811C18.8995 42.3887 17.8425 41.8216 16.829 42.1122C15.8155 42.4029 15.2364 43.4378 15.5332 44.4302C18.3348 53.8297 27.2754 60.3867 37.2801 60.3867C47.7699 60.3867 56.8552 53.2485 59.2876 43.4591L62.9001 44.0261Z" fill="url(#paint2_linear_1_4700)"/>
<defs>
<linearGradient id="paint0_linear_1_4700" x1="43.6205" y1="48.973" x2="31.3265" y2="27.2266" gradientUnits="userSpaceOnUse">
<stop stop-color="#BDDBBF" stop-opacity="0"/>
<stop offset="0.9995" stop-color="#BDDBBF"/>
</linearGradient>
<linearGradient id="paint1_linear_1_4700" x1="41.3999" y1="42.4796" x2="27.6142" y2="18.0944" gradientUnits="userSpaceOnUse">
<stop stop-color="#BDDBBF" stop-opacity="0"/>
<stop offset="0.8864" stop-color="#BDDBBF"/>
</linearGradient>
<linearGradient id="paint2_linear_1_4700" x1="11.2446" y1="57.8878" x2="62.4752" y2="38.0333" gradientUnits="userSpaceOnUse">
<stop stop-color="#BDDBBF" stop-opacity="0"/>
<stop offset="0.9995" stop-color="#BDDBBF"/>
</linearGradient>
</defs>
</svg>
