<svg width="74" height="74" viewBox="0 0 74 74" fill="none" xmlns="http://www.w3.org/2000/svg">
<g clip-path="url(#clip0_1_3368)">
<path opacity="0.1" d="M50.3336 62.7538C42.6632 67.0821 30.432 67.0821 22.7529 62.7538C15.0738 58.4254 15.0825 51.2144 22.7529 46.8947C30.4233 42.5751 42.6546 42.5664 50.3336 46.8947C58.0127 51.2231 57.7708 58.4254 50.3336 62.7538Z" fill="url(#paint0_linear_1_3368)"/>
<path opacity="0.3" d="M50.3336 51.4568C42.6632 55.7851 30.432 55.7851 22.7529 51.4568C15.0738 47.1284 15.0825 39.9174 22.7529 35.5978C30.4233 31.2781 42.6546 31.2694 50.3336 35.5978C58.0127 39.9261 57.7708 47.1284 50.3336 51.4568Z" fill="url(#paint1_linear_1_3368)"/>
<path opacity="0.8" d="M50.3336 40.4022C42.6632 44.7305 30.432 44.7305 22.7529 40.4022C15.0738 36.0739 15.0825 28.8629 22.7529 24.5432C30.4233 20.2235 42.6546 20.2149 50.3336 24.5432C58.0127 28.8715 57.7708 36.0739 50.3336 40.4022Z" fill="url(#paint2_linear_1_3368)"/>
<path d="M50.3331 29.3481C42.6627 33.6764 30.4315 33.6764 22.7524 29.1057C15.0733 24.535 15.082 17.5664 22.7524 13.2467C30.4228 8.92702 42.6541 8.91836 50.3331 13.2467C58.0122 17.575 57.7703 24.7774 50.3331 29.3481Z" fill="url(#paint3_linear_1_3368)"/>
<path d="M50.3331 29.3481C42.6627 33.6764 30.4315 33.6764 22.7524 29.1057C15.0733 24.535 15.082 17.5664 22.7524 13.2467C30.4228 8.92702 42.6541 8.91836 50.3331 13.2467C58.0122 17.575 57.7703 24.7774 50.3331 29.3481Z" fill="url(#paint4_linear_1_3368)"/>
</g>
<defs>
<linearGradient id="paint0_linear_1_3368" x1="17.6435" y1="58.2667" x2="57.3267" y2="51.0671" gradientUnits="userSpaceOnUse">
<stop stop-color="#BDDBBF" stop-opacity="0"/>
<stop offset="0.9995" stop-color="#BDDBBF"/>
</linearGradient>
<linearGradient id="paint1_linear_1_3368" x1="17.6195" y1="46.9751" x2="57.3026" y2="39.7758" gradientUnits="userSpaceOnUse">
<stop stop-color="#BDDBBF" stop-opacity="0"/>
<stop offset="0.9995" stop-color="#BDDBBF"/>
</linearGradient>
<linearGradient id="paint2_linear_1_3368" x1="17.6376" y1="35.9164" x2="57.3207" y2="28.717" gradientUnits="userSpaceOnUse">
<stop stop-color="#BDDBBF" stop-opacity="0"/>
<stop offset="0.9995" stop-color="#BDDBBF"/>
</linearGradient>
<linearGradient id="paint3_linear_1_3368" x1="17.6336" y1="24.7388" x2="57.3168" y2="17.5393" gradientUnits="userSpaceOnUse">
<stop stop-color="#BDDBBF" stop-opacity="0"/>
<stop offset="0.9995" stop-color="#BDDBBF"/>
</linearGradient>
<linearGradient id="paint4_linear_1_3368" x1="17.6336" y1="24.7388" x2="57.3168" y2="17.5393" gradientUnits="userSpaceOnUse">
<stop stop-color="#BDDBBF" stop-opacity="0"/>
<stop offset="0.9995" stop-color="#BDDBBF"/>
</linearGradient>
<clipPath id="clip0_1_3368">
<rect width="39" height="56" fill="white" transform="translate(17 9.99998)"/>
</clipPath>
</defs>
</svg>
